<svg width="79" height="68" xmlns="http://www.w3.org/2000/svg"><g fill="none" fill-rule="evenodd"><path d="M5.278 1C2.919 1 1 2.956 1 5.36v46.51c0 2.403 1.92 4.36 4.278 4.36h39.926v-2.907H5.278c-.786 0-1.426-.653-1.426-1.454V5.36c0-.8.64-1.453 1.426-1.453h68.444c.786 0 1.426.652 1.426 1.453v46.51c0 .8-.64 1.453-1.426 1.453H59.463v2.907h14.26c2.358 0 4.277-1.957 4.277-4.36V5.36C78 2.956 76.08 1 73.722 1H5.278z" stroke="#F6F6F6" stroke-width=".81" fill="#404042"/><path d="M69.381 32.206l-2.352 1.928c-1.617 1.328-2.67 3.918-2.446 6.026l.328 3.059c.032.306-.033.57-.184.741-.224.256-.531.261-.774.235l-2.998-.333c-2.039-.223-4.64.89-5.906 2.495l-1.89 2.4c-.399.507-.957.507-1.353 0l-1.891-2.4c-1.153-1.463-3.4-2.525-5.344-2.525-.191 0-.379.011-.562.03l-2.998.333c-.24.028-.55.02-.774-.235-.15-.17-.216-.435-.184-.741l.327-3.06c.225-2.107-.828-4.697-2.446-6.025l-2.351-1.928c-.25-.204-.385-.45-.385-.692 0-.242.136-.487.385-.69l2.351-1.93c1.618-1.328 2.67-3.917 2.446-6.024l-.327-3.06c-.032-.306.034-.57.184-.74.223-.257.528-.263.774-.235l2.998.33c.183.021.37.033.562.033h.002c1.942 0 4.19-1.064 5.342-2.526l1.89-2.401c.399-.507.956-.507 1.353 0l1.89 2.4c1.267 1.608 3.873 2.712 5.907 2.495l2.998-.331c.244-.028.55-.022.774.235.151.17.216.434.184.74l-.328 3.06c-.224 2.107.829 4.696 2.446 6.024l2.352 1.93c.249.203.386.448.386.69 0 .242-.137.488-.386.692zM53.242 62.275a1.393 1.393 0 0 0-1.061-.012l-5.42 2.145V47.416c.372.223.7.486.924.77l1.89 2.401c.742.942 1.802 1.482 2.908 1.482 1.104 0 2.164-.54 2.908-1.482l1.888-2.4c.224-.285.552-.546.925-.77V64.36l-4.962-2.085zm17.931-33.726l-2.351-1.928c-.846-.696-1.51-2.333-1.393-3.436l.326-3.057c.12-1.145-.198-2.211-.899-3.008-.783-.89-1.934-1.328-3.214-1.187l-2.996.332c-1.129.128-2.694-.57-3.367-1.422l-1.89-2.4c-.742-.944-1.802-1.484-2.906-1.484-1.106 0-2.166.54-2.91 1.483l-1.888 2.401c-.674.854-2.227 1.55-3.366 1.422l-2.998-.332c-1.288-.141-2.43.298-3.214 1.187-.7.797-1.018 1.863-.898 3.008l.326 3.057c.117 1.103-.546 2.74-1.393 3.436l-2.352 1.928c-.922.758-1.453 1.84-1.453 2.965 0 1.127.53 2.208 1.453 2.967l2.352 1.928c.847.695 1.51 2.332 1.393 3.434l-.326 3.06c-.12 1.142.197 2.21.898 3.007.784.89 1.928 1.325 3.214 1.187l2.58-.287v19.73c0 .482.231.933.622 1.206.389.272.885.328 1.324.155l6.833-2.706 6.41 2.694a1.4 1.4 0 0 0 1.34-.136c.397-.27.635-.725.635-1.212V46.81l2.577.286c1.292.141 2.43-.298 3.214-1.187.701-.797 1.019-1.865.899-3.008l-.326-3.059c-.118-1.102.547-2.74 1.393-3.434l2.351-1.928c.923-.759 1.455-1.84 1.455-2.967 0-1.125-.532-2.207-1.455-2.965z" fill="#F93822"/><path d="M53.938 30.749h-2.91c-.802 0-1.455-.668-1.455-1.487 0-.82.653-1.488 1.455-1.488h4.364c.805 0 1.455-.665 1.455-1.487 0-.823-.65-1.488-1.455-1.488h-1.456v-1.487c0-.823-.652-1.488-1.455-1.488s-1.455.665-1.455 1.488v1.487c-2.405 0-4.363 2.002-4.363 4.463 0 2.46 1.958 4.462 4.365 4.462h2.91c.801 0 1.454.668 1.454 1.487 0 .82-.653 1.488-1.455 1.488h-5.82c-.804 0-1.454.665-1.454 1.487 0 .823.65 1.488 1.455 1.488h2.908v1.487c0 .823.652 1.488 1.455 1.488s1.455-.665 1.455-1.488v-1.487h.002c2.406 0 4.364-2.002 4.364-4.463 0-2.46-1.958-4.462-4.364-4.462" fill="#404042"/><path d="M29.14 14.581H12.256c-.778 0-1.407-.811-1.407-1.81 0-1 .629-1.812 1.407-1.812H29.14c.778 0 1.407.812 1.407 1.811 0 1-.63 1.811-1.407 1.811m-2.697 28.973H12.266c-.783 0-1.417-.81-1.417-1.81 0-1.002.634-1.812 1.417-1.812h14.177c.784 0 1.417.81 1.417 1.811 0 1.002-.633 1.811-1.417 1.811M25.5 20.919H12.314c-.81 0-1.465-.81-1.465-1.81 0-1.002.655-1.812 1.465-1.812H25.5c.81 0 1.465.81 1.465 1.811s-.655 1.81-1.465 1.81m-7.19 5.433h-5.969c-.825 0-1.492-.81-1.492-1.81 0-1.002.667-1.811 1.492-1.811h5.97c.824 0 1.491.81 1.491 1.81 0 1.002-.667 1.811-1.492 1.811" stroke="#F6F6F6" stroke-width=".81" fill="#404042"/></g></svg>