<svg width="21" height="22" xmlns="http://www.w3.org/2000/svg"><path d="M10.452 21.096a10.406 10.406 0 0 1-4.001-.784 10.066 10.066 0 0 1-1.794-.962 10.704 10.704 0 0 1-1.595-1.316 9.917 9.917 0 0 1-1.311-1.59c-.38-.573-.7-1.17-.961-1.794a10.007 10.007 0 0 1-.591-1.944A10.6 10.6 0 0 1 0 10.654c0-.702.066-1.387.199-2.057.132-.67.33-1.318.59-1.944a10.548 10.548 0 0 1 2.273-3.39A10.451 10.451 0 0 1 8.395.402c.67-.134 1.355-.2 2.057-.2a10.6 10.6 0 0 1 2.052.199c.673.132 1.323.33 1.95.59a10.548 10.548 0 0 1 3.389 2.273c.494.494.93 1.026 1.31 1.595.38.57.699 1.167.956 1.794.258.626.455 1.275.591 1.944.136.67.204 1.355.204 2.057a10.527 10.527 0 0 1-.795 3.996 10.538 10.538 0 0 1-.956 1.794 9.917 9.917 0 0 1-1.31 1.59c-.494.494-1.026.933-1.595 1.316a10.136 10.136 0 0 1-3.744 1.547 10.6 10.6 0 0 1-2.052.199zm0-19.798a9.058 9.058 0 0 0-3.636.736A9.485 9.485 0 0 0 3.84 4.042a9.485 9.485 0 0 0-2.008 2.976 9.067 9.067 0 0 0-.736 3.636c0 1.29.245 2.501.736 3.637a9.42 9.42 0 0 0 2.008 2.97 9.531 9.531 0 0 0 2.976 2.003 9.067 9.067 0 0 0 3.636.736c1.29 0 2.501-.245 3.636-.736a9.466 9.466 0 0 0 2.97-2.003 9.466 9.466 0 0 0 2.004-2.97 9.067 9.067 0 0 0 .736-3.637c0-1.289-.245-2.5-.736-3.636a9.531 9.531 0 0 0-2.003-2.976 9.42 9.42 0 0 0-2.97-2.008 9.067 9.067 0 0 0-3.637-.736zM8.25 15.048a.601.601 0 0 1-.21-.038.431.431 0 0 1-.177-.123l-3.298-3.298a.527.527 0 0 1-.16-.387c0-.15.053-.28.16-.387a.527.527 0 0 1 .387-.16c.15 0 .28.053.387.16l2.911 2.912 7.315-7.316a.527.527 0 0 1 .387-.161c.15 0 .28.054.387.161a.527.527 0 0 1 .161.387.53.53 0 0 1-.161.387l-7.702 7.702a.431.431 0 0 1-.178.123.601.601 0 0 1-.209.038z" fill="#36D4A2" fill-rule="evenodd"/></svg>