<svg width="82" height="82" xmlns="http://www.w3.org/2000/svg" xmlns:xlink="http://www.w3.org/1999/xlink"><defs><path id="a" d="M.1 0h9.898v3H.1z"/></defs><g fill="none" fill-rule="evenodd"><path d="M39.4 23.545h1.594l.006.002.008-.002H47.4c.882 0 1.6-.713 1.6-1.59 0-.877-.718-1.588-1.6-1.588l-4.8-.002v-4.773c0-.88-.715-1.592-1.6-1.592-.883 0-1.6.713-1.6 1.592v4.771c-3.533 0-6.4 2.85-6.4 6.364s2.867 6.363 6.4 6.363h3.2a3.196 3.196 0 0 1 3.2 3.182 3.199 3.199 0 0 1-3.2 3.183h-8c-.885 0-1.6.714-1.6 1.59a1.59 1.59 0 0 0 1.6 1.588h4.8v4.776c0 .877.715 1.591 1.6 1.591.883 0 1.6-.714 1.6-1.59v-4.777c3.533 0 6.4-2.846 6.4-6.361 0-3.514-2.867-6.362-6.4-6.362h-3.2a3.197 3.197 0 0 1-3.2-3.183 3.196 3.196 0 0 1 3.2-3.182" fill="#404042"/><path d="M9 27.498C9 26.67 8.33 26 7.501 26h-6a1.5 1.5 0 0 0 0 3h6C8.331 29 9 28.328 9 27.498M16.501 5.57a1.467 1.467 0 0 0 2.071 0c.57-.57.57-1.499 0-2.07l-2.07-2.072a1.47 1.47 0 0 0-2.075 0 1.47 1.47 0 0 0 0 2.072l2.074 2.07zM5.731 9.798l5.072 3a1.437 1.437 0 0 0 2-.548c.405-.718.165-1.636-.533-2.048L7.198 7.2a1.447 1.447 0 0 0-2.001.549 1.52 1.52 0 0 0 .534 2.048m7.074 33.954a1.444 1.444 0 0 0-2.003-.547l-5.071 2.998c-.7.412-.938 1.33-.534 2.048.27.48.762.75 1.267.75.25 0 .501-.064.732-.202l5.07-2.998c.7-.413.942-1.33.54-2.049" fill="#F93822"/><g transform="translate(72 26)"><mask id="b" fill="#fff"><use xlink:href="#a"/></mask><path d="M8.35 0h-6.6C.839 0 .1.67.1 1.5S.837 3 1.75 3h6.6C9.26 3 10 2.33 10 1.5S9.26 0 8.35 0" fill="#F93822" mask="url(#b)"/></g><path d="M65.502 50.427A1.465 1.465 0 1 0 63.43 52.5l2.072 2.07a1.466 1.466 0 0 0 2.072 0 1.471 1.471 0 0 0 0-2.07l-2.072-2.073zM16.5 50.43l-2.07 2.072A1.462 1.462 0 0 0 15.464 55c.376 0 .75-.143 1.038-.43l2.07-2.07c.57-.573.57-1.5 0-2.072a1.465 1.465 0 0 0-2.073.003M64.467 6a1.46 1.46 0 0 0 1.034-.428l2.07-2.07A1.464 1.464 0 1 0 65.5 1.43l-2.07 2.069a1.46 1.46 0 0 0 0 2.07c.285.287.66.431 1.036.431M5.92 39.944l2.95-.822c.811-.227 1.295-1.096 1.078-1.944-.22-.845-1.057-1.35-1.869-1.124l-2.949.82c-.811.231-1.295 1.098-1.078 1.948.184.708.8 1.178 1.472 1.178.131 0 .264-.02.397-.056m69.159-21.89l-2.947.825c-.813.227-1.297 1.097-1.082 1.942.185.71.8 1.179 1.474 1.179.131 0 .264-.017.396-.056l2.948-.819c.815-.228 1.297-1.1 1.079-1.946-.217-.846-1.053-1.35-1.868-1.125m-69.949 3.07l2.949.82c.134.037.267.056.398.056.673 0 1.288-.468 1.47-1.176.218-.849-.264-1.717-1.08-1.946l-2.948-.825c-.815-.224-1.65.28-1.868 1.125-.218.848.266 1.717 1.08 1.946m70.737 15.752l-2.949-.823c-.814-.224-1.649.28-1.868 1.124-.217.85.265 1.716 1.08 1.945l2.946.822c.133.037.267.056.397.056.673 0 1.289-.47 1.473-1.178.217-.851-.268-1.716-1.08-1.946m-.6 9.325l-5.072-2.998a1.444 1.444 0 0 0-2.001.547 1.524 1.524 0 0 0 .538 2.05l5.071 2.998c.23.138.482.202.73.202a1.45 1.45 0 0 0 1.268-.75 1.517 1.517 0 0 0-.534-2.049m-7.071-33.954a1.46 1.46 0 0 0 1.269.753c.248 0 .499-.066.73-.202l5.07-3c.702-.415.942-1.33.537-2.048a1.445 1.445 0 0 0-2-.549l-5.07 3a1.515 1.515 0 0 0-.536 2.046" fill="#F93822"/><path d="M55.241 49.576a5.753 5.753 0 0 0-2.658 4.825v7.1a1.59 1.59 0 0 1-1.58 1.577l-.005-.002-.008.002H32.006l-.008-.002h-.003a1.584 1.584 0 0 1-1.579-1.575v-7.1a5.753 5.753 0 0 0-2.658-4.825c-6.976-4.499-11.593-12.305-11.593-21.192.027-13.937 11.341-25.206 25.335-25.23 13.99.024 25.308 11.293 25.331 25.23.003 8.887-4.614 16.693-11.59 21.192zm-5.825 18.45l-15.833 1.126V66.23h15.833v1.796zm0 4.73l-15.833 1.128v-1.567l15.833-1.128v1.568zm-3.165 6.09H36.75a3.164 3.164 0 0 1-2.858-1.822l15.502-1.104a3.16 3.16 0 0 1-3.143 2.927zM41.5.002C25.758 0 13 12.706 13 28.384c0 9.994 5.196 18.787 13.037 23.837.755.484 1.216 1.32 1.213 2.18v7.1c.003 2.056 1.325 3.79 3.168 4.439v3.44l-.116.007a1.576 1.576 0 1 0 .11 3.15h.004l.002 1.574-.114.007a1.578 1.578 0 1 0 .226 3.146l.108-.008A6.32 6.32 0 0 0 36.75 82l9.501-.003c3.496 0 6.329-2.821 6.332-6.305l.11-.006a1.575 1.575 0 0 0 1.468-1.684c-.058-.831-.755-1.446-1.578-1.45v-1.59l.11-.005a1.58 1.58 0 0 0 1.468-1.688c-.06-.828-.755-1.443-1.578-1.446V65.94c1.84-.651 3.165-2.384 3.165-4.44v-7.099c0-.86.46-1.696 1.214-2.18C64.805 47.17 70 38.378 70 28.384 70 12.706 57.24 0 41.5 0z" fill="#404042"/></g></svg>