<svg width="32" height="36" xmlns="http://www.w3.org/2000/svg"><path d="M8.422 0v2.856H0V36h31.848V2.856h-8.42V0h-1.817v2.856H10.237V0H8.422zm21.61 34.183H1.818V12.59h28.214l.002 21.592zm-8.42-29.51v2.279h1.818V4.674h6.603v6.101l-28.216-.001v-6.1H8.42v2.278h1.818V4.674h11.374zM6 18.604V16h3.025v2.603H6zm8 0V16h3.025v2.603H14zm9 0V16h3.025v2.603H23zm-17 6V22h3.025v2.603H6zm8 0V22h3.025v2.603H14zm9 0V22h3.025v2.603H23zm-17 7V29h3.025v2.603H6zm8 0V29h3.025v2.603H14z" fill="#F93822" fill-rule="evenodd"/></svg>