<svg width="80" height="80" xmlns="http://www.w3.org/2000/svg"><g fill="none" fill-rule="evenodd"><circle fill="#FFF" cx="40" cy="40" r="40"/><path d="M55.181 53.7l-2.44 2.484a1.011 1.011 0 0 1-.72.311c-.288 0-.554-.123-.754-.345L35.115 38.058l2.267-2.307 17.763 16.447c.216.197.335.46.342.744.007.283-.103.551-.306.76v-.003zm-25.036 2.443a.988.988 0 0 1-.719.348.998.998 0 0 1-.741-.31l-2.44-2.484a1.034 1.034 0 0 1-.304-.753c.01-.28.129-.54.344-.734l10.142-9.285 2.708 3.031-8.99 10.185v.002zm-.741-22.874a3.21 3.21 0 0 0-2.308.981l-1.451 1.479h-1.782c-.62 0-1.123.512-1.123 1.144v1.814l-1.124 1.144-2.905-2.958 1.124-1.144h1.781c.618 0 1.124-.513 1.124-1.145V32.77l7.502-7.642c.141-.083 1.033-.488 4.995-.712a72.352 72.352 0 0 1 1.588-.073l-3.181 3.238a3.342 3.342 0 0 0-.962 2.43c.022.913.404 1.76 1.076 2.381l1.957 1.815-2.112 2.15-1.78-1.994a3.26 3.26 0 0 0-2.417-1.096l-.002.002zm15.363.901a6.884 6.884 0 0 1-.683-3.018c0-3.784 3.022-6.864 6.74-6.864.547 0 1.075.064 1.594.192l-3.512 3.577a1.144 1.144 0 0 0-.328.81v3.432c0 .631.503 1.144 1.123 1.144h3.37c.297 0 .583-.122.794-.334l3.514-3.577c.123.527.189 1.069.189 1.623 0 3.784-3.027 6.864-6.74 6.864a6.594 6.594 0 0 1-2.967-.698 1.105 1.105 0 0 0-1.33.263l-1.72 1.952-2.324-2.15 2.027-1.857c.373-.343.478-.894.258-1.354l-.005-.005zm11.888 16.333L46.466 41.07l1.19-1.35a8.793 8.793 0 0 0 3.167.584c4.956 0 8.987-4.105 8.987-9.153a9.33 9.33 0 0 0-1.007-4.207 1.12 1.12 0 0 0-.822-.605 1.118 1.118 0 0 0-.968.323l-4.406 4.49h-1.782v-1.815l4.406-4.49a1.16 1.16 0 0 0 .319-.983 1.136 1.136 0 0 0-.596-.84 8.858 8.858 0 0 0-4.13-1.023c-4.958 0-8.986 4.105-8.986 9.153 0 1.116.19 2.196.57 3.221l-1.595 1.462-5.543-5.134a1.032 1.032 0 0 1-.034-1.503l5.152-5.247a1.15 1.15 0 0 0 .24-1.247A1.123 1.123 0 0 0 39.594 22c-.092 0-2.307.002-4.7.144-4.57.275-5.687.803-6.208 1.334l-7.864 8.008a1.151 1.151 0 0 0-.326.81v1.144h-1.123a1.13 1.13 0 0 0-.798.334l-2.247 2.289a1.164 1.164 0 0 0 0 1.617l4.494 4.576a1.11 1.11 0 0 0 1.588 0l2.247-2.288c.214-.215.33-.505.33-.81v-1.144h1.124c.297 0 .582-.121.793-.334l1.782-1.814c.198-.202.456-.311.721-.311.288 0 .553.123.753.345l4.756 5.33-10.133 9.275a3.314 3.314 0 0 0-1.087 2.375 3.32 3.32 0 0 0 .961 2.432l2.44 2.485c.62.634 1.436.98 2.297.98.029 0 .06 0 .09-.003a3.203 3.203 0 0 0 2.332-1.105l8.836-10.013 8.952 10.027a3.25 3.25 0 0 0 2.415 1.096c.87 0 1.69-.348 2.307-.982l2.44-2.485a3.317 3.317 0 0 0 .964-2.43 3.341 3.341 0 0 0-1.074-2.382v.003z" fill="#F93822"/></g></svg>