<svg width="59" height="69" xmlns="http://www.w3.org/2000/svg" xmlns:xlink="http://www.w3.org/1999/xlink"><defs><path id="a" d="M0 .001h58.407V69H.001z"/></defs><g fill="none" fill-rule="evenodd"><mask id="b" fill="#fff"><use xlink:href="#a"/></mask><path d="M55.49 64.689a1.458 1.458 0 0 1-1.46 1.439H4.382c-.805-.003-1.462-.648-1.462-1.44V17.25h10.223c2.418-.003 4.376-1.93 4.379-4.31V2.875h36.506a1.455 1.455 0 0 1 1.46 1.439v60.375zM14.603 4.908v8.032a1.456 1.456 0 0 1-1.46 1.436H4.987l9.617-9.468zM54.03 0H16.063c-.384 0-.76.151-1.033.42L.43 14.796a1.433 1.433 0 0 0-.43 1.02v48.873C0 67.069 1.959 69 4.383 69h49.646c2.42 0 4.38-1.93 4.38-4.311V4.314c0-2.382-1.963-4.313-4.38-4.313z" fill="#404042" mask="url(#b)"/><path d="M17.655 35.44h-.002l-4.527 4.938-1.776-1.938a1.299 1.299 0 0 0-1.948 0c-.538.586-.535 1.537.003 2.124l2.75 2.997a1.3 1.3 0 0 0 .971.439c.368 0 .714-.154.973-.44l5.498-5.998a1.598 1.598 0 0 0 0-2.122 1.291 1.291 0 0 0-1.942 0M27.502 23H45.5a1.5 1.5 0 1 0 0-3H27.502a1.5 1.5 0 1 0 0 3m-9.85-2.56v-.003l-4.527 4.939-1.776-1.937a1.298 1.298 0 0 0-1.946 0 1.598 1.598 0 0 0 0 2.123l2.749 2.998c.261.285.605.44.973.44s.714-.155.973-.44l5.5-6a1.599 1.599 0 0 0 0-2.12 1.296 1.296 0 0 0-1.946 0m.003 28.999l-4.53 4.94-1.776-1.939a1.295 1.295 0 0 0-1.947 0c-.538.587-.535 1.537.003 2.125l2.747 2.998c.26.282.606.437.973.437s.713-.155.974-.437l5.5-6.002a1.604 1.604 0 0 0 0-2.122 1.296 1.296 0 0 0-1.944 0M27.501 29H39.5a1.499 1.499 0 1 0 0-3h-12a1.501 1.501 0 1 0 0 3m12 25H27.499C26.67 54 26 54.67 26 55.5s.67 1.5 1.499 1.5h12c.83 0 1.501-.67 1.501-1.5s-.67-1.5-1.5-1.5M27.502 44h12a1.5 1.5 0 1 0 0-3h-12a1.5 1.5 0 1 0 0 3m17.996 5h-18C26.67 49 26 49.67 26 50.5s.67 1.5 1.498 1.5h18a1.5 1.5 0 1 0 0-3M27.5 38h17.998a1.499 1.499 0 1 0 0-3H27.5a1.5 1.5 0 1 0 0 3" fill="#F93822"/></g></svg>