<svg width="143" height="64" xmlns="http://www.w3.org/2000/svg" xmlns:xlink="http://www.w3.org/1999/xlink"><defs><path id="a" d="M0 .108h47.74V47.83H0z"/><path id="c" d="M3.4 3.515V.185H.023v3.33H3.4z"/></defs><g fill="none" fill-rule="evenodd"><g transform="translate(0 .185)"><mask id="b" fill="#fff"><use xlink:href="#a"/></mask><path d="M19.937 24.457l27.8-.248.002-.239c0-.678-.029-1.348-.084-2.011l-26.71-.281a.228.228 0 1 1 0-.457l26.607-.247a23.521 23.521 0 0 0-.394-2.256l-25.215-.276a.228.228 0 1 1 0-.457l24.974-.243a23.269 23.269 0 0 0-.733-2.258l-23.233-.279a.228.228 0 1 1 0-.456l22.836-.244C42.122 6.035 33.688.108 23.87.108 12.182.108 2.457 8.506.4 19.593l34.254-.475-.456 1.465L.32 20.048a23.7 23.7 0 0 0-.292 2.767l33.62-.478-.455 1.465L.01 23.267a24.11 24.11 0 0 0 .077 2.763l32.556-.473-.454 1.465-32.058-.529c.098.933.25 1.85.453 2.747l31.066-.464-.454 1.465L.7 29.726c.231.936.52 1.85.858 2.739l29.085-.47-.455 1.466-28.44-.515c.384.947.83 1.864 1.327 2.746l26.575-.477-.455 1.465-25.844-.515a23.873 23.873 0 0 0 1.922 2.76l23.227-.49-.456 1.465-22.396-.52c4.377 5.168 10.915 8.45 18.222 8.45 10.49 0 19.399-6.763 22.6-16.167l-28.55-.279a.229.229 0 0 1 0-.456l28.861-.245c.216-.738.397-1.491.541-2.258l-28.395-.276a.228.228 0 0 1 0-.457l28.56-.254a23.33 23.33 0 0 0 .22-2.243l-27.77-.282a.228.228 0 0 1 0-.456" fill="#FF2B00" mask="url(#b)"/></g><path d="M102.396 15.162h-7.128l-9.843 16.657h6.703l1.528-3.004h4.16l.17 3.004h5.778l-1.368-16.657zM95.36 24.91l2.21-4.722.102 4.722H95.36z" fill="#FF2B00"/><path d="M84.798 20.645c-.243.785-.745.962-1.801.975h-1.408l.669-2.165h1.313c.907 0 1.446.486 1.227 1.19m5.6-.584c.387-1.735-.32-4.9-5.994-4.9h-7.126l-5.285 16.657h6.354l2.081-6.71 2.116 6.71h6.483l-3.102-6.872c2.931-.905 3.93-2.425 4.474-4.885m-14.053-4.899H60.928l-1.62 5.116h4.909l-3.66 11.54h6.305l3.659-11.54h4.204zm59.587 4.768l1.507-4.768h-12.064l-5.284 16.657h12.082l1.435-4.517h-6.002l.513-1.62h5.981l1.339-4.226h-5.98l.484-1.525zm-23.171 11.888h5.947l5.285-16.656h-6.306l-2.207 7.377-1.866-7.377h-6.003l-5.286 16.656h6.305l2.238-7.485z" fill="#FF2B00"/><g transform="translate(138.91 14.277)"><mask id="d" fill="#fff"><use xlink:href="#c"/></mask><path d="M1.363 1.731v-.595h.397c.202 0 .418.044.418.282 0 .296-.22.313-.467.313h-.348zm0 .247h.335l.506.833h.327l-.547-.847c.282-.035.499-.185.499-.528 0-.379-.225-.546-.68-.546h-.732v1.92h.292v-.832zm.352 1.537c.909 0 1.685-.704 1.685-1.67C3.4.89 2.624.185 1.715.185.8.184.023.89.023 1.844c0 .966.776 1.67 1.692 1.67zM.358 1.845c0-.788.594-1.383 1.357-1.383.754 0 1.349.595 1.349 1.383 0 .803-.595 1.393-1.349 1.393-.763 0-1.357-.59-1.357-1.393z" fill="#FF2B00" mask="url(#d)"/></g><path fill="#7C878E" d="M2.005 61.73l1.728-7.836h1.669L3.674 61.73zm3.655-1.092c0-.07.012-.247.047-.388l.635-2.89h-.94l.293-1.304h.94l.341-1.55H8.47l-.341 1.55H9.28l-.294 1.304H7.834l-.552 2.49c-.012.07-.012.13-.012.2 0 .306.176.494.552.494.153 0 .341-.06.412-.118l.047 1.198c-.212.153-.564.247-.928.247-1.011 0-1.693-.388-1.693-1.233m4.853-3.548l-.529-.564c.412-.188.952-.564 1.152-.987-.035.012-.094.012-.13.012-.387 0-.728-.259-.728-.764 0-.552.517-1.01 1.046-1.01.482 0 .917.329.917.963 0 .893-.752 1.868-1.728 2.35m.74 3.759l.835-1.046c.34.4 1.163.893 1.986.893.505 0 .822-.27.822-.587 0-.764-2.89-.576-2.89-2.28 0-.986.822-1.914 2.338-1.914.964 0 1.869.364 2.41.916l-.777.999c-.27-.353-.975-.74-1.668-.74-.529 0-.823.234-.823.528 0 .693 2.891.54 2.891 2.268 0 1.08-.905 1.985-2.456 1.985-1.034 0-2.033-.353-2.668-1.022m13.997.881l.728-3.301h-3.702l-.728 3.3H19.88l1.728-7.835h1.668l-.67 3.078h3.69l.682-3.078h1.68L26.93 61.73zm6.874-1.34l.153-.692c-.224-.329-.717-.54-1.281-.54-.658 0-1.082.399-1.082.95 0 .494.4.753 1.023.753.517 0 .905-.188 1.187-.47zm-.294 1.34l.118-.576a2.262 2.262 0 0 1-1.693.717c-.963 0-1.868-.54-1.868-1.645 0-1.292.975-2.068 2.103-2.068.823 0 1.434.236 1.951.764l.153-.646c.012-.047.024-.188.024-.27 0-.517-.553-.858-1.328-.858-.588 0-1.117.2-1.575.54l-.353-1.08c.658-.47 1.434-.693 2.245-.693 1.34 0 2.538.505 2.538 1.797 0 .13-.035.458-.07.611l-.753 3.407H31.83zm2.75 0l1.257-5.674h1.493l-.165.74c.494-.54 1.105-.881 2.01-.881l-.33 1.48a2.324 2.324 0 0 0-.54-.07c-.552 0-1.08.305-1.41.68l-.822 3.725H34.58zm5.875-2.514c0 .811.541 1.327 1.258 1.327.529 0 .998-.293 1.304-.68l.435-1.963c-.247-.387-.728-.658-1.328-.658-.975 0-1.669.928-1.669 1.974m3.244-2.408l.635-2.914h1.504l-1.74 7.836h-1.504l.165-.705c-.482.564-1.023.846-1.704.846-1.281 0-2.163-.846-2.163-2.35 0-1.715 1.07-3.606 2.997-3.606.764 0 1.434.329 1.81.893m6.51 4.922l1.41-6.367h-2.291l.317-1.469h6.252l-.317 1.47h-2.292l-1.399 6.366zm8.485-3.16c0-.823-.494-1.328-1.317-1.328-.998 0-1.692.952-1.692 1.974 0 .822.506 1.328 1.328 1.328.999 0 1.68-.952 1.68-1.974m-4.547.717c0-1.763 1.363-3.372 3.278-3.372 1.81 0 2.821 1.092 2.821 2.584 0 1.762-1.363 3.372-3.29 3.372-1.81 0-2.81-1.093-2.81-2.584m9.214 1.115l1.034-1.233c.54.728 1.563 1.222 2.644 1.222.846 0 1.187-.482 1.187-.882 0-1.104-3.82-.892-3.82-3.183 0-1.292 1.14-2.549 3.068-2.549 1.245 0 2.42.458 3.126 1.269l-1.046 1.198c-.588-.681-1.54-.999-2.339-.999-.6 0-1.046.353-1.046.776 0 1.022 3.831.892 3.831 3.16 0 1.433-1.151 2.69-3.09 2.69-1.54 0-2.891-.599-3.55-1.469m7.475.236c0-.07.011-.247.047-.388l.634-2.89h-.94l.294-1.304h.94l.34-1.55h1.493l-.34 1.55h1.152l-.295 1.304h-1.152l-.552 2.49c-.011.07-.011.13-.011.2 0 .306.176.494.552.494.153 0 .34-.06.411-.118l.048 1.198c-.212.153-.565.247-.929.247-1.011 0-1.692-.388-1.692-1.233m8.026-2.068c0-.823-.494-1.328-1.316-1.328-.999 0-1.692.952-1.692 1.974 0 .822.505 1.328 1.328 1.328.999 0 1.68-.952 1.68-1.974m-4.548.717c0-1.763 1.363-3.372 3.279-3.372 1.81 0 2.82 1.092 2.82 2.584 0 1.762-1.363 3.372-3.29 3.372-1.81 0-2.809-1.093-2.809-2.584m11.317-.717c0-.811-.529-1.328-1.257-1.328-.517 0-.988.294-1.293.681l-.446 1.962c.246.389.728.659 1.327.659.988 0 1.67-.928 1.67-1.974m-3.233 2.408l-.646 2.914h-1.492l1.739-7.836h1.492l-.164.705c.482-.564 1.034-.846 1.716-.846 1.28 0 2.15.846 2.15 2.35 0 1.703-1.057 3.606-2.985 3.606-.764 0-1.434-.329-1.81-.893M95.1 55.562l-1.963 3.372h2.445l-.482-3.372zm.81 6.168l-.2-1.328h-3.36l-.776 1.328h-1.986l4.748-7.836h2.091l1.293 7.836h-1.81zm7.133 0l1.41-6.367h-2.291l.317-1.469h6.252l-.317 1.47h-2.292l-1.398 6.366zm4.077 0l1.258-5.674h1.493l-.165.74c.494-.54 1.105-.881 2.01-.881l-.33 1.48a2.324 2.324 0 0 0-.54-.07c-.552 0-1.08.305-1.41.68l-.823 3.725h-1.492zm7.921-1.34l.153-.692c-.223-.329-.717-.54-1.281-.54-.658 0-1.081.399-1.081.95 0 .494.4.753 1.022.753.517 0 .905-.188 1.187-.47zm-.294 1.34l.118-.576a2.261 2.261 0 0 1-1.692.717c-.964 0-1.87-.54-1.87-1.645 0-1.292.977-2.068 2.105-2.068.822 0 1.433.236 1.95.764l.153-.646c.012-.047.024-.188.024-.27 0-.517-.552-.858-1.328-.858-.588 0-1.117.2-1.575.54l-.352-1.08c.658-.47 1.433-.693 2.244-.693 1.34 0 2.539.505 2.539 1.797 0 .13-.036.458-.071.611l-.752 3.407h-1.493zm6.581 0l.764-3.442c.024-.106.048-.223.048-.33 0-.516-.424-.716-.976-.716-.505 0-1 .34-1.328.658l-.846 3.83h-1.493l1.258-5.674h1.492l-.164.728c.446-.422 1.057-.87 1.892-.87 1.093 0 1.774.565 1.774 1.446 0 .106-.035.352-.059.47l-.857 3.9h-1.505zm7.568-3.383c.012-.024.012-.094.012-.118 0-.576-.423-1.092-1.316-1.092-.811 0-1.41.587-1.528 1.21h2.832zm-4.49.975c0-1.845 1.388-3.407 3.28-3.407 1.457 0 2.55.94 2.55 2.526 0 .34-.07.763-.118.94H125.9v.14c0 .482.506 1.128 1.563 1.128.506 0 1.081-.141 1.434-.411l.459 1.046c-.553.375-1.305.587-2.01.587-1.786 0-2.938-.963-2.938-2.55zm5.677 1.668c0-.564.482-1.034 1.046-1.034.481 0 .87.4.87.881 0 .564-.483 1.034-1.046 1.034-.482 0-.87-.4-.87-.881m2.402-5.851h-.362l-.127.563h.415c.235 0 .362-.154.362-.328 0-.128-.073-.235-.288-.235zm.02 1.42l-.282-.643h-.274l-.141.644h-.248l.355-1.629h.63c.316 0 .49.208.49.43a.56.56 0 0 1-.536.549l.295.65h-.289zm-.221-2.003c-.657 0-1.18.523-1.18 1.186 0 .65.523 1.187 1.18 1.187.657 0 1.194-.536 1.194-1.187 0-.663-.537-1.186-1.194-1.186zm0 2.608a1.416 1.416 0 0 1-1.415-1.422c0-.79.638-1.42 1.422-1.42.79 0 1.421.63 1.421 1.42 0 .784-.637 1.422-1.428 1.422z"/></g></svg>