<svg width="104" height="46" xmlns="http://www.w3.org/2000/svg" xmlns:xlink="http://www.w3.org/1999/xlink"><defs><path id="a" d="M0 0h34.719v34.3H0z"/><path id="c" d="M2.456 2.394V0H0v2.394h2.456z"/></defs><g fill="none" fill-rule="evenodd"><g transform="translate(0 .133)"><mask id="b" fill="#fff"><use xlink:href="#a"/></mask><path d="M14.5 17.5l20.218-.177.001-.172c0-.487-.02-.97-.06-1.446l-19.426-.202a.165.165 0 0 1-.166-.164c0-.09.074-.164.166-.164l19.35-.178a16.613 16.613 0 0 0-.287-1.62l-18.338-.2a.165.165 0 0 1-.166-.164c0-.09.075-.164.166-.164l18.163-.175a16.585 16.585 0 0 0-.533-1.623l-16.897-.2a.165.165 0 0 1-.166-.163c0-.09.075-.165.166-.165l16.608-.175C30.634 4.26 24.5 0 17.36 0 8.86 0 1.788 6.036.292 14.005l24.912-.342-.332 1.053-24.638-.384c-.11.651-.18 1.315-.212 1.989l24.45-.344-.33 1.053-24.133-.385a17.127 17.127 0 0 0 .056 1.986l23.677-.34-.33 1.053-23.315-.38c.071.671.182 1.33.33 1.975l22.593-.334-.33 1.053-22.18-.37c.168.673.378 1.33.624 1.968l21.153-.337-.33 1.053-20.685-.37c.28.68.603 1.34.965 1.974l19.328-.343-.331 1.053-18.796-.37c.419.695.886 1.357 1.397 1.984l16.893-.353-.331 1.053-16.289-.374A17.403 17.403 0 0 0 17.36 34.3c7.629 0 14.108-4.86 16.436-11.62l-20.764-.2a.165.165 0 0 1-.166-.164c0-.09.075-.164.166-.164l20.99-.176c.157-.53.289-1.072.394-1.623l-20.65-.199a.165.165 0 0 1-.167-.164c0-.09.075-.164.166-.164l20.771-.183c.079-.53.133-1.067.16-1.612L14.5 17.829a.165.165 0 0 1-.166-.165c0-.09.075-.164.166-.164" fill="#FFF" mask="url(#b)"/></g><path d="M74.342 11h-5.184L62 22.972h4.875l1.11-2.159h3.026l.124 2.159h4.202L74.342 11zm-5.116 7.007l1.607-3.394.074 3.394h-1.681z" fill="#FFF"/><path d="M61.313 14.941c-.177.565-.542.692-1.31.701h-1.024l.486-1.556h.955c.66 0 1.052.35.893.855m4.073-.42c.28-1.246-.233-3.521-4.36-3.521h-5.182L52 22.972h4.622l1.513-4.823 1.539 4.823h4.715l-2.257-4.94c2.132-.65 2.858-1.743 3.254-3.51M55.39 11H44.179L43 14.677h3.57l-2.661 8.295h4.584l2.662-8.295h3.057zm43.13 3.428L99.618 11h-8.774L87 22.972h8.786l1.044-3.247h-4.365l.373-1.163h4.35l.974-3.038h-4.348l.35-1.096zm-16.93 8.544h4.325L89.758 11h-4.586l-1.605 5.303L82.21 11h-4.366L74 22.972h4.585l1.628-5.38z" fill="#FFF"/><g transform="translate(101.026 10.262)"><mask id="d" fill="#fff"><use xlink:href="#c"/></mask><path d="M.974 1.112V.684h.29c.147 0 .303.032.303.203 0 .212-.16.225-.34.225H.975zm0 .177h.244l.369.599h.237l-.398-.608c.206-.026.363-.133.363-.38 0-.272-.164-.393-.494-.393H.762v1.38h.212V1.29zm.257 1.105c.66 0 1.225-.506 1.225-1.2C2.456.507 1.892 0 1.23 0 .564 0 0 .507 0 1.194c0 .694.564 1.2 1.23 1.2zm-.988-1.2C.243.628.676.2 1.231.2c.548 0 .98.428.98.994 0 .577-.432 1-.98 1a.974.974 0 0 1-.988-1z" fill="#FFF" mask="url(#d)"/></g><path fill="#FFF" d="M1 44.632L2.256 39H3.47l-1.256 5.632zm3.188-1.224c0-.051.008-.178.034-.28l.462-2.076H4l.214-.937h.683L5.145 39h1.086l-.248 1.115h.838l-.214.937h-.838l-.401 1.79c-.009.05-.009.093-.009.143 0 .22.128.355.402.355a.569.569 0 0 0 .299-.085l.034.862c-.154.11-.41.177-.675.177-.735 0-1.231-.279-1.231-.886m3.196-2.028L7 40.977c.3-.136.692-.406.838-.71-.026.009-.069.009-.095.009-.281 0-.53-.186-.53-.549 0-.397.377-.726.761-.726.35 0 .667.236.667.692 0 .642-.547 1.343-1.257 1.689M8 43.546l.607-.751c.248.287.846.642 1.444.642.368 0 .598-.195.598-.423 0-.548-2.102-.413-2.102-1.638 0-.709.598-1.376 1.7-1.376.702 0 1.36.262 1.753.659l-.564.717c-.197-.253-.71-.532-1.214-.532-.385 0-.598.17-.598.38 0 .498 2.102.389 2.102 1.63 0 .777-.658 1.427-1.786 1.427-.752 0-1.479-.253-1.94-.735m9.906 1.086l.53-2.373h-2.693l-.53 2.373H14L15.256 39h1.214l-.487 2.212h2.683L19.162 39h1.222l-1.256 5.632zm5.812-1.415l.111-.498c-.162-.236-.521-.389-.932-.389-.478 0-.786.288-.786.684 0 .355.29.541.744.541.376 0 .658-.135.863-.338zm-.214.963l.086-.414a1.655 1.655 0 0 1-1.231.515c-.7 0-1.359-.389-1.359-1.182 0-.929.71-1.486 1.53-1.486.598 0 1.042.169 1.419.549l.11-.465c.01-.034.018-.135.018-.194 0-.372-.402-.617-.966-.617a1.91 1.91 0 0 0-1.145.39l-.256-.778A2.8 2.8 0 0 1 23.342 40c.974 0 1.846.363 1.846 1.292 0 .093-.025.33-.051.439l-.547 2.449h-1.086zm1.496 0l.915-4.079H27l-.12.532c.36-.388.804-.633 1.462-.633l-.24 1.064a1.71 1.71 0 0 0-.392-.05c-.402 0-.787.219-1.026.489l-.598 2.677H25zm4.136-1.355c0 .583.394.954.915.954.385 0 .726-.21.949-.49l.316-1.41c-.18-.278-.53-.473-.966-.473-.709 0-1.214.667-1.214 1.42m2.36-1.732L31.957 39h1.094l-1.265 5.632h-1.094l.12-.506c-.35.405-.744.608-1.24.608-.931 0-1.572-.608-1.572-1.69 0-1.232.777-2.592 2.18-2.592.555 0 1.042.237 1.316.642m5.144 3.538l1.026-4.576H36L36.23 39h4.547l-.23 1.056H38.88l-1.017 4.576z"/><path d="M42.308 41.908c0-.59-.36-.954-.958-.954-.726 0-1.23.684-1.23 1.419 0 .59.367.954.965.954.727 0 1.223-.684 1.223-1.419M39 42.423c0-1.266.991-2.423 2.384-2.423 1.317 0 2.052.785 2.052 1.858 0 1.266-.992 2.423-2.393 2.423-1.316 0-2.043-.785-2.043-1.858m7 1.339l.752-.887c.393.524 1.137.879 1.923.879.615 0 .863-.347.863-.634 0-.793-2.777-.641-2.777-2.288 0-.929.829-1.832 2.23-1.832.906 0 1.761.329 2.274.912l-.76.86c-.428-.489-1.12-.717-1.702-.717-.436 0-.76.254-.76.558 0 .734 2.786.641 2.786 2.27 0 1.031-.838 1.935-2.248 1.935-1.12 0-2.102-.43-2.581-1.056" fill="#FFF"/><path d="M51.188 43.408c0-.051.008-.178.034-.28l.461-2.076H51l.214-.937h.683L52.145 39h1.086l-.248 1.115h.838l-.214.937h-.838l-.402 1.79c-.008.05-.008.093-.008.143 0 .22.128.355.402.355a.569.569 0 0 0 .299-.085l.034.862c-.154.11-.41.177-.675.177-.736 0-1.231-.279-1.231-.886m6.119-1.5c0-.59-.359-.954-.957-.954-.726 0-1.23.684-1.23 1.419 0 .59.367.954.965.954.727 0 1.222-.684 1.222-1.419M54 42.423c0-1.266.991-2.423 2.384-2.423 1.317 0 2.052.785 2.052 1.858 0 1.266-.992 2.423-2.393 2.423-1.317 0-2.043-.785-2.043-1.858m7.906-.515c0-.582-.385-.954-.915-.954-.376 0-.718.211-.94.49l-.325 1.41c.18.279.53.473.966.473.718 0 1.214-.667 1.214-1.419m-2.35 1.731l-.47 2.094H58l1.265-5.632h1.085l-.12.507c.351-.405.753-.608 1.248-.608.932 0 1.564.608 1.564 1.689 0 1.224-.769 2.592-2.17 2.592-.556 0-1.043-.236-1.317-.642m9.454-3.439l-1.428 2.423h1.778l-.35-2.424zm.59 4.432l-.146-.954h-2.444l-.565.954H65L68.453 39h1.521l.94 5.632h-1.316zm5.041 0l1.026-4.576H74L74.23 39h4.547l-.23 1.056H76.88l-1.017 4.576zM78 44.18l.915-4.079H80l-.12.532c.36-.388.803-.633 1.462-.633l-.24 1.064a1.71 1.71 0 0 0-.392-.05c-.402 0-.787.219-1.026.489l-.599 2.677H78zm5.718-.963l.111-.498c-.162-.236-.521-.389-.932-.389-.478 0-.786.288-.786.684 0 .355.29.541.744.541.376 0 .658-.135.863-.338zm-.214.963l.086-.414a1.656 1.656 0 0 1-1.231.515c-.7 0-1.359-.389-1.359-1.182 0-.929.71-1.486 1.53-1.486.598 0 1.042.169 1.419.549l.11-.465c.01-.034.018-.135.018-.194 0-.372-.402-.617-.966-.617a1.91 1.91 0 0 0-1.145.39l-.256-.778A2.798 2.798 0 0 1 83.342 40c.975 0 1.846.363 1.846 1.292 0 .093-.025.33-.051.439l-.547 2.449h-1.086zm4.282 0l.556-2.474a1.13 1.13 0 0 0 .034-.237c0-.37-.307-.515-.71-.515-.367 0-.726.245-.965.473l-.615 2.753H85l.915-4.079H87l-.12.524c.325-.304.77-.625 1.377-.625.795 0 1.29.405 1.29 1.039 0 .076-.025.253-.043.337l-.624 2.804h-1.094zm5.479-2.432c.008-.017.008-.068.008-.085 0-.413-.307-.785-.957-.785-.59 0-1.026.422-1.111.87h2.06zm-3.265.7C90 41.124 91.009 40 92.384 40c1.06 0 1.855.676 1.855 1.816 0 .244-.051.548-.085.675h-3.069v.101c0 .346.368.81 1.137.81.368 0 .786-.1 1.043-.295l.333.752c-.401.27-.948.422-1.461.422-1.3 0-2.137-.692-2.137-1.832zm5 1.295c0-.406.35-.743.761-.743.35 0 .632.287.632.633 0 .405-.35.743-.76.743a.635.635 0 0 1-.633-.633m1.175-4.155h-.263l-.093.404h.303c.17 0 .263-.11.263-.236 0-.091-.054-.168-.21-.168zm.015 1.02l-.205-.462h-.2l-.102.463h-.18l.258-1.17h.458c.23 0 .356.149.356.308 0 .216-.19.395-.39.395l.215.467h-.21zm-.161-1.44a.849.849 0 0 0-.858.853c0 .468.38.853.858.853a.864.864 0 0 0 .868-.853.858.858 0 0 0-.868-.852zm0 1.875c-.57 0-1.029-.458-1.029-1.022 0-.568.463-1.021 1.034-1.021.575 0 1.034.453 1.034 1.021a1.03 1.03 0 0 1-1.04 1.022z" fill="#FFF"/></g></svg>