<?xml version="1.0" encoding="UTF-8"?>
<svg width="143px" height="64px" viewBox="0 0 143 64" version="1.1" xmlns="http://www.w3.org/2000/svg" xmlns:xlink="http://www.w3.org/1999/xlink">
    <!-- Generator: Sketch 49 (51002) - http://www.bohemiancoding.com/sketch -->
    <title>Page 1</title>
    <desc>Created with Sketch.</desc>
    <defs>
        <polygon id="path-1" points="8.81039892e-05 0.108330275 47.7386473 0.108330275 47.7386473 47.8304 8.81039892e-05 47.8304"></polygon>
        <polygon id="path-3" points="3.39963926 3.51533211 3.39963926 0.184102752 0.0229657732 0.184102752 0.0229657732 3.51533211 3.39963926 3.51533211"></polygon>
    </defs>
    <g id="Symbols" stroke="none" stroke-width="1" fill="none" fill-rule="evenodd">
        <g id="NAV--with-new-number" transform="translate(-82.000000, -60.000000)">
            <g id="Page-1">
                <g transform="translate(82.000000, 60.000000)">
                    <g id="Group-3" transform="translate(0.000000, 0.185248)">
                        <mask id="mask-2" fill="white">
                            <use xlink:href="#path-1"></use>
                        </mask>
                        <g id="Clip-2"></g>
                        <path d="M19.9365525,24.4566018 L47.7368852,24.2094092 C47.7377663,24.1298495 47.7386473,24.0499963 47.7386473,23.9704367 C47.7386473,23.2922716 47.7101604,22.622033 47.6549485,21.9588404 L20.9456368,21.6775927 C20.8184734,21.6775927 20.7171538,21.5751339 20.7171538,21.449189 C20.7171538,21.323244 20.8184734,21.2207853 20.9456368,21.2207853 L47.5515732,20.9738862 C47.4564209,20.2102899 47.3242649,19.4584367 47.1577483,18.7183266 L21.942974,18.4417761 C21.8166916,18.4417761 21.714491,18.339611 21.714491,18.2133725 C21.714491,18.0874275 21.8166916,17.9852624 21.942974,17.9852624 L46.9169308,17.7421798 C46.7101801,16.9724183 46.4649573,16.2196844 46.1841993,15.4836844 L22.9508836,15.2050789 C22.8248949,15.2050789 22.7224006,15.1037945 22.7224006,14.9778495 C22.7224006,14.8519046 22.8248949,14.7494459 22.9508836,14.7494459 L45.7865566,14.5054826 C42.1217243,6.03546422 33.6881168,0.108124771 23.8695145,0.108124771 C12.1822267,0.108124771 2.45701468,8.50562936 0.400667575,19.593189 L34.6537365,19.1178862 L34.1979452,20.5831339 L0.321080305,20.0476477 C0.170422483,20.9542165 0.0729207351,21.8772257 0.0285750605,22.8152073 L33.64847,22.3366752 L33.1938534,23.8022165 L0.0106605827,23.2667303 C0.00478698342,23.5010055 8.81039892e-05,23.7344 8.81039892e-05,23.9704367 C8.81039892e-05,24.6641615 0.0294561004,25.3520147 0.0876047333,26.0298862 L32.6443782,25.5566385 L32.1897616,27.0218862 L0.131950408,26.4934459 C0.230333196,27.4264367 0.382165737,28.3426936 0.584804913,29.2401615 L31.6511526,28.7757211 L31.196536,30.2409688 L0.699927459,29.7263266 C0.93134727,30.6622532 1.219741,31.576455 1.55835399,32.464822 L30.6432429,31.9956844 L30.1883327,33.4609321 L1.74836493,32.9462899 C2.13220464,33.8930789 2.57712979,34.8102165 3.07521101,35.6918312 L29.6500173,35.214767 L29.195107,36.6800147 L3.35097649,36.1650789 C3.9268829,37.1315376 4.56974835,38.0533725 5.2725245,38.9252991 L28.5002602,38.4344367 L28.0441752,39.899978 L5.64755381,39.3791706 C10.025441,44.5484917 16.5630507,47.8304 23.8695145,47.8304 C34.3594692,47.8304 43.2685446,41.0669505 46.4699499,31.6630606 L17.9195585,31.384455 C17.7935698,31.384455 17.6910755,31.2819963 17.6910755,31.1560514 C17.6910755,31.0304 17.7935698,30.9279413 17.9195585,30.9279413 L46.780957,30.6828037 C46.996518,29.9447486 47.1777186,29.1920147 47.3222091,28.4254826 L18.9274681,28.1486385 C18.8014794,28.1486385 18.6992788,28.0464734 18.6992788,27.9205284 C18.6992788,27.7945835 18.8014794,27.6921248 18.9274681,27.6921248 L47.4875509,27.4381798 C47.5950378,26.7012991 47.6699262,25.9523817 47.7072236,25.1946569 L19.9365525,24.9131156 C19.8105638,24.9131156 19.7083631,24.8106569 19.7083631,24.6847119 C19.7083631,24.5590606 19.8105638,24.4566018 19.9365525,24.4566018" id="Fill-1" fill="#FF2B00" mask="url(#mask-2)"></path>
                    </g>
                    <path d="M102.395807,15.1617761 L95.2676071,15.1617761 L85.4252168,31.8185101 L92.1281683,31.8185101 L93.6558915,28.8149138 L97.8152808,28.8149138 L97.9864962,31.8185101 L103.764062,31.8185101 L102.395807,15.1617761 Z M95.3609974,24.9109138 L97.5709391,20.1887119 L97.6725524,24.9109138 L95.3609974,24.9109138 Z" id="Fill-4" fill="#FF2B00"></path>
                    <path d="M84.7982395,20.6448734 C84.5550725,21.4301945 84.0531734,21.607222 82.9968066,21.6201394 L81.5889048,21.6201394 L82.2576141,19.4550018 L83.5706572,19.4550018 C84.478422,19.4550018 85.0167374,19.941167 84.7982395,20.6448734 M90.3987164,20.0612404 C90.7846119,18.3264881 90.0780179,15.1614239 84.4044146,15.1614239 L77.2782703,15.1614239 L71.9926183,31.8181578 L78.2970461,31.8181578 L78.3472654,31.8181578 L80.4282816,25.1078459 L82.5439521,31.8181578 L89.0272309,31.8181578 L85.9245021,24.946378 C88.8560155,24.0409835 89.8542337,22.5205431 90.3987164,20.0612404" id="Fill-6" fill="#FF2B00"></path>
                    <polygon id="Fill-8" fill="#FF2B00" points="76.3457777 15.1617761 60.9275796 15.1617761 59.3082282 20.2782532 64.2165015 20.2782532 60.5575428 31.8185101 66.8616769 31.8185101 70.5209293 20.2782532 74.7252516 20.2782532"></polygon>
                    <polygon id="Fill-10" fill="#FF2B00" points="135.933266 19.9307156 137.440432 15.1618349 125.376353 15.1618349 120.092169 31.8185688 132.173575 31.8185688 133.609083 27.301578 127.606852 27.301578 128.119911 25.6824954 134.101291 25.6824954 135.439884 21.4561468 129.460853 21.4561468 129.943957 19.9307156"></polygon>
                    <polygon id="Fill-12" fill="#FF2B00" points="112.761506 31.8181872 118.709406 31.8181872 123.99359 15.1617468 117.688281 15.1617468 115.481276 22.5393615 113.61494 15.1617468 107.611828 15.1617468 102.326469 31.8181872 108.631485 31.8181872 110.869326 24.3334165"></polygon>
                    <g id="Group-16" transform="translate(138.910623, 14.276991)">
                        <mask id="mask-4" fill="white">
                            <use xlink:href="#path-3"></use>
                        </mask>
                        <g id="Clip-15"></g>
                        <path d="M1.36273377,1.73125872 L1.36273377,1.13588257 L1.75978908,1.13588257 C1.96242826,1.13588257 2.17769567,1.18021284 2.17769567,1.41830459 C2.17769567,1.71364404 1.95714202,1.73125872 1.71133189,1.73125872 L1.36273377,1.73125872 Z M1.36273377,1.9781578 L1.69752893,1.9781578 L2.20442055,2.81074495 L2.53128635,2.81074495 L1.98386689,1.96435963 C2.26638702,1.92913028 2.48282915,1.7794055 2.48282915,1.43591927 C2.48282915,1.05720367 2.25757662,0.88986422 1.80384108,0.88986422 L1.07140325,0.88986422 L1.07140325,2.81074495 L1.36273377,2.81074495 L1.36273377,1.9781578 Z M1.71514973,3.51533211 C2.62379554,3.51533211 3.399698,2.81074495 3.399698,1.84546055 C3.399698,0.88986422 2.62379554,0.184102752 1.71514973,0.184102752 C0.798574558,0.184102752 0.0229657732,0.88986422 0.0229657732,1.84546055 C0.0229657732,2.81074495 0.798574558,3.51533211 1.71514973,3.51533211 Z M0.357760932,1.84546055 C0.357760932,1.05720367 0.95246286,0.461827523 1.71514973,0.461827523 C2.46931987,0.461827523 3.0640218,1.05720367 3.0640218,1.84546055 C3.0640218,2.6475156 2.46931987,3.23790092 1.71514973,3.23790092 C0.95246286,3.23790092 0.357760932,2.6475156 0.357760932,1.84546055 Z" id="Fill-14" fill="#FF2B00" mask="url(#mask-4)"></path>
                    </g>
                    <polygon id="Fill-17" fill="#7C878E" points="2.00545237 61.7298789 3.73258424 53.8942826 5.40156748 53.8942826 3.67443561 61.7298789"></polygon>
                    <path d="M5.65994711,60.6375633 C5.65994711,60.5671046 5.67169431,60.3906642 5.70722958,60.2497468 L6.34157831,57.3600587 L5.40150874,57.3600587 L5.69548238,56.0559853 L6.63555195,56.0559853 L6.97622071,54.5053064 L8.46870229,54.5053064 L8.12803353,56.0559853 L9.27984635,56.0559853 L8.9858727,57.3600587 L7.83405988,57.3600587 L7.28194155,59.8504807 C7.27019435,59.9209394 7.27019435,59.979655 7.27019435,60.0501138 C7.27019435,60.3557284 7.44640233,60.5436183 7.82231268,60.5436183 C7.97531995,60.5436183 8.16298144,60.4846092 8.23375831,60.4256 L8.28104079,61.6242789 C8.06929753,61.777233 7.7165879,61.871178 7.35271842,61.871178 C6.34157831,61.871178 5.65994711,61.4833615 5.65994711,60.6375633" id="Fill-19" fill="#7C878E"></path>
                    <path d="M10.5129791,57.0894092 L9.98435521,56.5257394 C10.3958008,56.337556 10.9358783,55.9617761 11.136168,55.5390239 C11.1006328,55.550767 11.0421904,55.550767 11.0066552,55.550767 C10.6189976,55.550767 10.2777415,55.2924183 10.2777415,54.7871706 C10.2777415,54.2346569 10.7952056,53.7769688 11.3241232,53.7769688 C11.806052,53.7769688 12.2406984,54.1057761 12.2406984,54.7399046 C12.2406984,55.6329688 11.488584,56.6079413 10.5129791,57.0894092" id="Fill-21" fill="#7C878E"></path>
                    <path d="M11.2534932,60.8488514 L12.087838,59.8031266 C12.4285067,60.2029798 13.251398,60.6961908 14.0739956,60.6961908 C14.5794188,60.6961908 14.8962995,60.4258055 14.8962995,60.1087413 C14.8962995,59.345145 12.0056076,59.5333284 12.0056076,57.8296954 C12.0056076,56.8429798 12.8282051,55.9146862 14.3441811,55.9146862 C15.3077451,55.9146862 16.2125731,56.2793101 16.7535315,56.8309431 L15.9773354,57.8296954 C15.7074435,57.4774018 15.0023179,57.0892917 14.3086458,57.0892917 C13.7800219,57.0892917 13.4863419,57.3244477 13.4863419,57.6183193 C13.4863419,58.3111633 16.3770338,58.1585028 16.3770338,59.885622 C16.3770338,60.9662826 15.4722059,61.8710899 13.9209883,61.8710899 C12.8866475,61.8710899 11.8878419,61.5182092 11.2534932,60.8488514" id="Fill-23" fill="#7C878E"></path>
                    <polygon id="Fill-25" fill="#7C878E" points="25.2496048 61.7298789 25.9782248 58.4285945 22.2760952 58.4285945 21.5480625 61.7298789 19.8790793 61.7298789 21.6065048 53.8942826 23.2751944 53.8942826 22.6053104 56.9721541 26.2953992 56.9721541 26.977324 53.8942826 28.6577608 53.8942826 26.9300416 61.7298789"></polygon>
                    <path d="M32.1239773,60.3907229 L32.2769846,59.6978789 C32.0532004,59.3690716 31.5598181,59.1571083 30.9956589,59.1571083 C30.3375221,59.1571083 29.9143293,59.5566679 29.9143293,60.1088881 C29.9143293,60.6020991 30.3140277,60.8610349 30.9369229,60.8610349 C31.4540933,60.8610349 31.8417509,60.6725578 32.1239773,60.3907229 Z M31.8300037,61.7300257 L31.9477693,61.1543193 C31.5245765,61.5888147 30.9839117,61.8712367 30.254998,61.8712367 C29.2917277,61.8712367 28.3866061,61.3304661 28.3866061,60.2263193 C28.3866061,58.9342826 29.3622109,58.158356 30.4902357,58.158356 C31.3128332,58.158356 31.9236876,58.3935119 32.4414453,58.9222459 L32.5938652,58.2763743 C32.6059061,58.2291083 32.6176533,58.0878972 32.6176533,58.0056954 C32.6176533,57.4889982 32.0649476,57.1481541 31.2896325,57.1481541 C30.7019789,57.1481541 30.1727676,57.3483743 29.7146269,57.6889248 L29.3622109,56.6079706 C30.0203477,56.1382459 30.7959565,55.914833 31.6068069,55.914833 C32.9465749,55.914833 34.1450828,56.4197872 34.1450828,57.712411 C34.1450828,57.8412917 34.1101349,58.1703927 34.0745996,58.3230532 L33.3224852,61.7300257 L31.8300037,61.7300257 Z" id="Fill-27" fill="#7C878E"></path>
                    <path d="M34.5798173,61.7298789 L35.8373549,56.0558972 L37.3298365,56.0558972 L37.1653757,56.7960073 C37.658758,56.2555303 38.269906,55.9146862 39.174734,55.9146862 L38.8458124,57.3949064 C38.7518348,57.3717138 38.5403853,57.3244477 38.3054413,57.3244477 C37.7530293,57.3244477 37.2241117,57.6300624 36.8951901,58.0055486 L36.0725925,61.7298789 L34.5798173,61.7298789 Z" id="Fill-29" fill="#7C878E"></path>
                    <path d="M40.4551493,59.2161174 C40.4551493,60.0269798 40.9961078,60.5433835 41.7126869,60.5433835 C42.2416045,60.5433835 42.7114924,60.2498055 43.0172133,59.8622826 L43.4521533,57.9003009 C43.2051684,57.512778 42.723827,57.2420991 42.1241325,57.2420991 C41.1488213,57.2420991 40.4551493,58.1700991 40.4551493,59.2161174 M43.6988445,56.8076037 L44.3337805,53.8941358 L45.8380093,53.8941358 L44.0985429,61.7300257 L42.5943141,61.7300257 L42.7587749,61.0254385 C42.2768461,61.5888147 41.7364749,61.8712367 41.0548437,61.8712367 C39.7738117,61.8712367 38.8924782,61.0254385 38.8924782,59.5217321 C38.8924782,57.8060624 39.9614732,55.914833 41.8891885,55.914833 C42.6530501,55.914833 43.3229341,56.2436404 43.6988445,56.8076037" id="Fill-31" fill="#7C878E"></path>
                    <polygon id="Fill-33" fill="#7C878E" points="50.2089657 61.7298789 51.6192169 55.3630532 49.3279258 55.3630532 49.6451002 53.8942826 55.8966656 53.8942826 55.5797849 55.3630532 53.2879064 55.3630532 51.8894025 61.7298789"></polygon>
                    <path d="M58.6935561,58.5698936 C58.6935561,57.7472881 58.1998801,57.2423339 57.3772825,57.2423339 C56.3787706,57.2423339 55.6850985,58.1941138 55.6850985,59.2160587 C55.6850985,60.0383706 56.1905217,60.5436183 57.0131193,60.5436183 C58.0119249,60.5436183 58.6935561,59.591545 58.6935561,58.5698936 M54.1456281,59.2865174 C54.1456281,57.5244624 55.5088905,55.9147743 57.4242713,55.9147743 C59.2342209,55.9147743 60.2450673,57.007178 60.2450673,58.4991413 C60.2450673,60.2614899 58.8815113,61.871178 56.9540896,61.871178 C55.1447274,61.871178 54.1456281,60.7784807 54.1456281,59.2865174" id="Fill-35" fill="#7C878E"></path>
                    <path d="M63.3586036,60.4024661 L64.3926507,59.1688514 C64.9333155,59.8972183 65.9556155,60.3907229 67.0369451,60.3907229 C67.8830371,60.3907229 68.2237059,59.9089615 68.2237059,59.5094018 C68.2237059,58.405255 64.4043979,58.6169248 64.4043979,56.3258422 C64.4043979,55.0338055 65.5444635,53.7769982 67.4715915,53.7769982 C68.7173819,53.7769982 69.8926891,54.2346862 70.597521,55.0455486 L69.5517267,56.2436404 C68.964073,55.5625394 68.01255,55.2451817 67.2131531,55.2451817 C66.6137523,55.2451817 66.1670651,55.5980624 66.1670651,56.0208147 C66.1670651,57.0427596 69.9981202,56.9132917 69.9981202,59.1805945 C69.9981202,60.6141358 68.8468947,61.8712367 66.9074323,61.8712367 C65.3682556,61.8712367 64.0167404,61.272044 63.3586036,60.4024661" id="Fill-37" fill="#7C878E"></path>
                    <path d="M70.8326706,60.6375633 C70.8326706,60.5671046 70.8444177,60.3906642 70.879953,60.2497468 L71.5140081,57.3600587 L70.5742322,57.3600587 L70.8682058,56.0559853 L71.8079817,56.0559853 L72.1489442,54.5053064 L73.6414257,54.5053064 L73.300757,56.0559853 L74.4525698,56.0559853 L74.1583025,57.3600587 L73.0064896,57.3600587 L72.4543713,59.8504807 C72.4429178,59.9209394 72.4429178,59.979655 72.4429178,60.0501138 C72.4429178,60.3557284 72.6191258,60.5436183 72.9950361,60.5436183 C73.1480434,60.5436183 73.3357049,60.4846092 73.4064818,60.4256 L73.4537642,61.6242789 C73.2417273,61.777233 72.8893113,61.871178 72.5254419,61.871178 C71.5140081,61.871178 70.8326706,61.4833615 70.8326706,60.6375633" id="Fill-39" fill="#7C878E"></path>
                    <path d="M78.8589733,58.5698936 C78.8589733,57.7472881 78.3652973,57.2423339 77.5429934,57.2423339 C76.5441879,57.2423339 75.8508095,58.1941138 75.8508095,59.2160587 C75.8508095,60.0383706 76.355939,60.5436183 77.1785366,60.5436183 C78.1776358,60.5436183 78.8589733,59.591545 78.8589733,58.5698936 M74.3113391,59.2865174 C74.3113391,57.5244624 75.6743078,55.9147743 77.5899822,55.9147743 C79.3999318,55.9147743 80.4104846,57.007178 80.4104846,58.4991413 C80.4104846,60.2614899 79.0472222,61.871178 77.1198006,61.871178 C75.3101447,61.871178 74.3113391,60.7784807 74.3113391,59.2865174" id="Fill-41" fill="#7C878E"></path>
                    <path d="M85.6282378,58.5698936 C85.6282378,57.7590312 85.0990265,57.2423339 84.3707002,57.2423339 C83.8538234,57.2423339 83.3833481,57.5362055 83.0776273,57.9234349 L82.6315274,59.8854165 C82.8782186,60.2735266 83.3601474,60.5436183 83.9592545,60.5436183 C84.9466066,60.5436183 85.6282378,59.6156183 85.6282378,58.5698936 M82.3962898,60.9781138 L81.7499002,63.8915817 L80.2577123,63.8915817 L81.9965913,56.0559853 L83.4890729,56.0559853 L83.3246121,56.7608661 C83.806541,56.1969028 84.3592467,55.9147743 85.0405842,55.9147743 C86.3213225,55.9147743 87.1909089,56.7608661 87.1909089,58.2645725 C87.1909089,59.9679119 86.133661,61.871178 84.2062394,61.871178 C83.4423778,61.871178 82.7724938,61.5420771 82.3962898,60.9781138" id="Fill-43" fill="#7C878E"></path>
                    <path d="M95.0997103,55.5624514 L93.1367534,58.9341945 L95.5816391,58.9341945 L95.0997103,55.5624514 Z M95.9105607,61.7299376 L95.7105646,60.402378 L92.3496911,60.402378 L91.5740823,61.7299376 L89.5879247,61.7299376 L94.335555,53.8940477 L96.4274374,53.8940477 L97.7202166,61.7299376 L95.9105607,61.7299376 Z" id="Fill-45" fill="#7C878E"></path>
                    <polygon id="Fill-47" fill="#7C878E" points="103.042814 61.7298789 104.453065 55.3630532 102.161774 55.3630532 102.478948 53.8942826 108.730807 53.8942826 108.413633 55.3630532 106.121754 55.3630532 104.723544 61.7298789"></polygon>
                    <path d="M107.120795,61.7298789 L108.378332,56.0558972 L109.870814,56.0558972 L109.706353,56.7960073 C110.199736,56.2555303 110.81059,55.9146862 111.715712,55.9146862 L111.38679,57.3949064 C111.292812,57.3717138 111.081363,57.3244477 110.846419,57.3244477 C110.294007,57.3244477 109.765089,57.6300624 109.436168,58.0055486 L108.613276,61.7298789 L107.120795,61.7298789 Z" id="Fill-49" fill="#7C878E"></path>
                    <path d="M115.041255,60.3907229 L115.194263,59.6978789 C114.970772,59.3690716 114.477096,59.1571083 113.912643,59.1571083 C113.2548,59.1571083 112.831607,59.5566679 112.831607,60.1088881 C112.831607,60.6020991 113.231306,60.8610349 113.854495,60.8610349 C114.371371,60.8610349 114.758735,60.6725578 115.041255,60.3907229 Z M114.747282,61.7300257 L114.864754,61.1543193 C114.441855,61.5888147 113.90119,61.8712367 113.17257,61.8712367 C112.208712,61.8712367 111.303884,61.3304661 111.303884,60.2263193 C111.303884,58.9342826 112.279783,58.158356 113.407514,58.158356 C114.230111,58.158356 114.840966,58.3935119 115.358723,58.9222459 L115.511143,58.2763743 C115.523184,58.2291083 115.534931,58.0878972 115.534931,58.0056954 C115.534931,57.4889982 114.982519,57.1481541 114.206911,57.1481541 C113.619257,57.1481541 113.090046,57.3483743 112.632199,57.6889248 L112.279783,56.6079706 C112.937626,56.1382459 113.713235,55.914833 114.524085,55.914833 C115.864147,55.914833 117.062655,56.4197872 117.062655,57.712411 C117.062655,57.8412917 117.027413,58.1703927 116.991878,58.3230532 L116.239763,61.7300257 L114.747282,61.7300257 Z" id="Fill-51" fill="#7C878E"></path>
                    <path d="M121.328415,61.7298789 L122.092276,58.2879706 C122.116064,58.1822826 122.139559,58.0648514 122.139559,57.9588697 C122.139559,57.4424661 121.716366,57.2422459 121.16366,57.2422459 C120.658531,57.2422459 120.164855,57.5827963 119.835933,57.9001541 L118.989841,61.7298789 L117.497066,61.7298789 L118.754604,56.0558972 L120.247085,56.0558972 L120.082624,56.7842642 C120.529312,56.3615119 121.14046,55.9146862 121.974804,55.9146862 C123.067881,55.9146862 123.749219,56.4786495 123.749219,57.3599706 C123.749219,57.4656587 123.714271,57.7122642 123.690483,57.8296954 L122.832644,61.7298789 L121.328415,61.7298789 Z" id="Fill-53" fill="#7C878E"></path>
                    <path d="M128.896401,58.3468624 C128.907854,58.3230826 128.907854,58.2526239 128.907854,58.2291376 C128.907854,57.6534312 128.484955,57.1367339 127.591874,57.1367339 C126.78073,57.1367339 126.181329,57.7238899 126.063857,58.3468624 L128.884653,58.3468624 L128.896401,58.3468624 Z M124.406915,59.3215413 C124.406915,57.4772844 125.793965,55.9148624 127.685558,55.9148624 C129.143092,55.9148624 130.236169,56.8548991 130.236169,58.4408073 C130.236169,58.7813578 130.165392,59.2044037 130.118109,59.3805505 L125.899397,59.3805505 L125.899397,59.5217615 C125.899397,60.0029358 126.40482,60.6493945 127.462068,60.6493945 C127.968078,60.6493945 128.543397,60.5078899 128.896401,60.2377982 L129.354541,61.2838165 C128.802423,61.6593028 128.050309,61.8712661 127.344889,61.8712661 C125.558728,61.8712661 124.406915,60.9077431 124.406915,59.3215413 Z" id="Fill-55" fill="#7C878E"></path>
                    <path d="M130.082603,60.9899156 C130.082603,60.4256587 130.564826,59.9562275 131.128985,59.9562275 C131.610326,59.9562275 131.998278,60.3557872 131.998278,60.8369615 C131.998278,61.4009248 131.516349,61.8712367 130.952777,61.8712367 C130.470555,61.8712367 130.082603,61.4716771 130.082603,60.9899156" id="Fill-57" fill="#7C878E"></path>
                    <path d="M132.485375,55.1389945 L132.123268,55.1389945 L131.995811,55.7020771 L132.411368,55.7020771 C132.646312,55.7020771 132.773182,55.5479486 132.773182,55.3735633 C132.773182,55.246444 132.699762,55.1389945 132.485375,55.1389945 Z M132.505346,56.5599119 L132.223413,55.916389 L131.948822,55.916389 L131.807856,56.5599119 L131.55999,56.5599119 L131.915049,54.9314349 L132.54558,54.9314349 C132.860698,54.9314349 133.035144,55.1389945 133.035144,55.3606459 C133.035144,55.6618569 132.773182,55.9099303 132.498591,55.9099303 L132.794033,56.5599119 L132.505346,56.5599119 Z M132.283617,54.5559486 C131.626949,54.5559486 131.104198,55.078811 131.104198,55.7422972 C131.104198,56.3928661 131.626949,56.9286459 132.283617,56.9286459 C132.941167,56.9286459 133.47772,56.3928661 133.47772,55.7422972 C133.47772,55.078811 132.941167,54.5559486 132.283617,54.5559486 Z M132.283617,57.1635083 C131.499492,57.1635083 130.869254,56.526444 130.869254,55.7422972 C130.869254,54.9513982 131.50654,54.3213798 132.290959,54.3213798 C133.081839,54.3213798 133.71237,54.9513982 133.71237,55.7422972 C133.71237,56.526444 133.075378,57.1635083 132.283617,57.1635083 Z" id="Fill-59" fill="#7C878E"></path>
                </g>
            </g>
        </g>
    </g>
</svg>