<?xml version="1.0" encoding="UTF-8"?>
<svg width="104px" height="46px" viewBox="0 0 104 46" version="1.1" xmlns="http://www.w3.org/2000/svg" xmlns:xlink="http://www.w3.org/1999/xlink">
    <!-- Generator: Sketch 49 (51002) - http://www.bohemiancoding.com/sketch -->
    <title>trane logo - white</title>
    <desc>Created with Sketch.</desc>
    <defs>
        <polygon id="path-1" points="0 1.19944829e-14 34.7189522 0 34.7189522 34.3002376 0 34.3002376"></polygon>
        <polygon id="path-3" points="2.45576254 2.3943211 2.45576254 1.73920002e-13 0 0 0 2.3943211 2.45576254 2.3943211"></polygon>
    </defs>
    <g id="Symbols" stroke="none" stroke-width="1" fill="none" fill-rule="evenodd">
        <g id="D-footer" transform="translate(-111.000000, -1223.000000)">
            <g id="footer" transform="translate(-3.000000, 0.000000)">
                <g id="trane-logo---white">
                    <g transform="translate(114.000000, 1223.000000)">
                        <g id="Group-3" transform="translate(0.000000, 0.133147)">
                            <mask id="mask-2" fill="white">
                                <use xlink:href="#path-1"></use>
                            </mask>
                            <g id="Clip-2"></g>
                            <path d="M14.4992468,17.5004679 L34.7176706,17.3227982 C34.7183114,17.2656147 34.7189522,17.2082202 34.7189522,17.1510367 C34.7189522,16.6636055 34.6982344,16.1818716 34.6580803,15.7052018 L15.2331263,15.503055 C15.1406439,15.503055 15.0669569,15.4294128 15.0669569,15.3388899 C15.0669569,15.248367 15.1406439,15.1747248 15.2331263,15.1747248 L34.5828982,14.9972661 C34.5136966,14.4484312 34.4175831,13.9080367 34.2964802,13.3760826 L15.9584625,13.1773119 C15.8666207,13.1773119 15.792293,13.1038807 15.792293,13.0131468 C15.792293,12.9226239 15.8666207,12.8491927 15.9584625,12.8491927 L34.1213401,12.6744771 C33.970976,12.121211 33.7926322,11.5801835 33.5884445,11.0511835 L16.6914876,10.8509358 C16.5998595,10.8509358 16.5253182,10.7781376 16.5253182,10.6876147 C16.5253182,10.5970917 16.5998595,10.5234495 16.6914876,10.5234495 L33.2992498,10.3481009 C30.6339172,4.26027523 24.5003845,0 17.3595829,0 C8.85973716,0 1.78685569,6.03570642 0.291330524,14.0048899 L25.2026534,13.6632661 L24.8711688,14.7164128 L0.233448873,14.3315321 C0.123879549,14.9831284 0.0529691863,15.6465413 0.0207177866,16.3207156 L24.4715505,15.9767706 L24.1409202,17.0301284 L0.00768907542,16.6452477 C0.00341736686,16.813633 0,16.9813853 0,17.1510367 C0,17.6496514 0.0213585428,18.1440459 0.0636484577,18.6312661 L23.7413019,18.2911193 L23.4106716,19.3442661 L0.0958998574,18.9644495 C0.167450976,19.6350367 0.277874642,20.2935963 0.425248588,20.9386514 L23.018956,20.6048349 L22.6883257,21.6579817 L0.508974076,21.2880826 C0.677279394,21.9607798 0.887020284,22.6178624 1.13328428,23.2563761 L22.2859308,22.9191835 L21.9550869,23.9723303 L1.27147406,23.6024312 C1.55063021,24.2829358 1.87421213,24.9421284 2.23645302,25.575789 L21.5635849,25.2328991 L21.232741,26.2860459 L2.43700974,25.9159358 C2.85585076,26.610578 3.32338927,27.2731468 3.8344992,27.899844 L20.7273979,27.5470367 L20.3956997,28.6003945 L4.10724779,28.2260642 C7.29116577,31.9415138 12.045791,34.3003853 17.3595829,34.3003853 C24.9886408,34.3003853 31.4679683,29.439156 33.7962631,22.6801101 L13.0323421,22.4798624 C12.9407139,22.4798624 12.8661726,22.4062202 12.8661726,22.3156972 C12.8661726,22.2253853 12.9407139,22.1517431 13.0323421,22.1517431 L34.0224501,21.9755505 C34.1792218,21.4450734 34.311004,20.9040459 34.416088,20.3531009 L13.7653673,20.1541193 C13.6737391,20.1541193 13.5994114,20.0806881 13.5994114,19.9901651 C13.5994114,19.8996422 13.6737391,19.826 13.7653673,19.826 L34.5363366,19.6434771 C34.6145089,19.113844 34.6689732,18.5755596 34.6960985,18.030945 L14.4992468,17.8285872 C14.4076187,17.8285872 14.3332909,17.754945 14.3332909,17.664422 C14.3332909,17.5741101 14.4076187,17.5004679 14.4992468,17.5004679" id="Fill-1" fill="#FFFFFF" mask="url(#mask-2)"></path>
                        </g>
                        <path d="M74.3422476,11 L69.158102,11 L62,22.9720275 L66.8748738,22.9720275 L67.9859452,20.8131927 L71.0109556,20.8131927 L71.1354759,22.9720275 L75.3373421,22.9720275 L74.3422476,11 Z M69.2260222,18.0071927 L70.8332526,14.6131101 L70.9071531,18.0071927 L69.2260222,18.0071927 Z" id="Fill-4" fill="#FFFFFF"></path>
                        <path d="M61.313179,14.9412294 C61.1363303,15.5056789 60.7713128,15.6329174 60.003046,15.6422018 L58.9791175,15.6422018 L59.4654515,14.0860092 L60.4203919,14.0860092 C61.0805845,14.0860092 61.4720866,14.4354404 61.313179,14.9412294 M65.3862531,14.5217431 C65.6669044,13.2748899 65.1530179,11 61.026761,11 L55.8441105,11 L52,22.9720275 L56.5850384,22.9720275 L56.6215615,22.9720275 L58.1350278,18.1489908 L59.6736973,22.9720275 L64.3888092,22.9720275 L62.1322791,18.0329358 C64.2642889,17.3821835 64.9902658,16.289367 65.3862531,14.5217431" id="Fill-6" fill="#FFFFFF"></path>
                        <polygon id="Fill-8" fill="#FFFFFF" points="55.390945 11 44.1777101 11 43 14.6774679 46.5696533 14.6774679 43.9085924 22.9720275 48.4934172 22.9720275 51.1546917 14.6774679 54.2123807 14.6774679"></polygon>
                        <polygon id="Fill-10" fill="#FFFFFF" points="98.520798 14.427633 99.6169184 11 90.8430426 11 87 22.9720275 95.7864774 22.9720275 96.8304829 19.7254404 92.4652239 19.7254404 92.8383577 18.5617248 97.1884521 18.5617248 98.1619745 15.5240367 93.8135888 15.5240367 94.1649368 14.427633"></polygon>
                        <polygon id="Fill-12" fill="#FFFFFF" points="81.5891174 22.9718165 85.9148631 22.9718165 89.7579057 11 85.1722266 11 83.5671321 16.3026606 82.2097967 11 77.843897 11 74 22.9718165 78.5854656 22.9718165 80.2129865 17.5921376"></polygon>
                        <g id="Group-16" transform="translate(101.025908, 10.261587)">
                            <mask id="mask-4" fill="white">
                                <use xlink:href="#path-3"></use>
                            </mask>
                            <g id="Clip-15"></g>
                            <path d="M0.974376725,1.11201835 L0.974376725,0.684091743 L1.26314422,0.684091743 C1.41051817,0.684091743 1.56707629,0.715954128 1.56707629,0.887082569 C1.56707629,1.0993578 1.40667363,1.11201835 1.22790263,1.11201835 L0.974376725,1.11201835 Z M0.974376725,1.28947706 L1.21786411,1.28947706 L1.58651256,1.88789908 L1.82423314,1.88789908 L1.42610991,1.27955963 C1.63157909,1.25423853 1.78899155,1.14662385 1.78899155,0.899743119 C1.78899155,0.627541284 1.62517153,0.507266055 1.29518204,0.507266055 L0.76249998,0.507266055 L0.76249998,1.88789908 L0.974376725,1.88789908 L0.974376725,1.28947706 Z M1.23067924,2.3943211 C1.89151255,2.3943211 2.45580526,1.88789908 2.45580526,1.19410092 C2.45580526,0.507266055 1.89151255,0 1.23067924,0 C0.564079117,0 0,0.507266055 0,1.19410092 C0,1.88789908 0.564079117,2.3943211 1.23067924,2.3943211 Z M0.243487388,1.19410092 C0.243487388,0.627541284 0.675997881,0.199614679 1.23067924,0.199614679 C1.77916662,0.199614679 2.21167711,0.627541284 2.21167711,1.19410092 C2.21167711,1.77057798 1.77916662,2.19491743 1.23067924,2.19491743 C0.675997881,2.19491743 0.243487388,1.77057798 0.243487388,1.19410092 Z" id="Fill-14" fill="#FFFFFF" mask="url(#mask-4)"></path>
                        </g>
                        <polygon id="Fill-17" fill="#FFFFFF" points="1 44.6318349 2.2560959 39 3.46990189 39 2.21380599 44.6318349"></polygon>
                        <path d="M4.18795518,43.4075596 C4.18795518,43.3569174 4.19649859,43.2301009 4.22234243,43.1288165 L4.68368696,41.0518532 L4,41.0518532 L4.21379901,40.1145505 L4.89748597,40.1145505 L5.14524507,39 L6.23068621,39 L5.98292712,40.1145505 L6.82060917,40.1145505 L6.60681015,41.0518532 L5.7691281,41.0518532 L5.3675875,42.841844 C5.35904408,42.8924862 5.35904408,42.9346881 5.35904408,42.9853303 C5.35904408,43.2049908 5.48719534,43.3400367 5.76058469,43.3400367 C5.8718627,43.3400367 6.00834378,43.2976239 6.05981787,43.255211 L6.09420513,44.1167615 C5.94021003,44.2266972 5.68369393,44.2942202 5.41906159,44.2942202 C4.68368696,44.2942202 4.18795518,44.0154771 4.18795518,43.4075596" id="Fill-19" fill="#FFFFFF"></path>
                        <path d="M7.38445377,41.3808165 L7,40.9756789 C7.29923319,40.840422 7.69201679,40.5703303 7.83768205,40.2664771 C7.81183821,40.2749174 7.76933471,40.2749174 7.74349088,40.2749174 C7.46155811,40.2749174 7.21337184,40.0892294 7.21337184,39.7260826 C7.21337184,39.3289633 7.58970937,39 7.97437672,39 C8.32487041,39 8.64097685,39.2363303 8.64097685,39.6921101 C8.64097685,40.334 8.09398456,41.0347615 7.38445377,41.3808165" id="Fill-21" fill="#FFFFFF"></path>
                        <path d="M8,43.5464312 L8.6067962,42.7948165 C8.8545553,43.082211 9.45302167,43.4367064 10.0512745,43.4367064 C10.418855,43.4367064 10.6493137,43.242367 10.6493137,43.0144771 C10.6493137,42.4656422 8.54699228,42.6008991 8.54699228,41.3764128 C8.54699228,40.667211 9.14524507,40 10.247773,40 C10.9485468,40 11.6066035,40.2620734 12.0000279,40.6585596 L11.4355216,41.3764128 C11.2392366,41.1232018 10.726418,40.8442477 10.2219292,40.8442477 C9.83747544,40.8442477 9.62389001,41.0132661 9.62389001,41.2244862 C9.62389001,41.7224679 11.7262114,41.6127431 11.7262114,42.8541101 C11.7262114,43.6308349 11.0681547,44.2811651 9.93999645,44.2811651 C9.18774857,44.2811651 8.46134453,44.0275321 8,43.5464312" id="Fill-23" fill="#FFFFFF"></path>
                        <polygon id="Fill-25" fill="#FFFFFF" points="17.9058367 44.6318349 18.4357422 42.2590367 15.7432843 42.2590367 15.213806 44.6318349 14 44.6318349 15.2563095 39 16.4699019 39 15.9827135 41.2122202 18.6664144 41.2122202 19.1623598 39 20.3844956 39 19.1279726 44.6318349"></polygon>
                        <path d="M23.7180882,43.2170459 L23.8293662,42.7190642 C23.6666141,42.4827339 23.3077906,42.3303853 22.8974929,42.3303853 C22.418848,42.3303853 22.1110714,42.6175688 22.1110714,43.0144771 C22.1110714,43.3689725 22.4017612,43.5550826 22.8547759,43.5550826 C23.2308998,43.5550826 23.5128326,43.4196147 23.7180882,43.2170459 Z M23.5042891,44.1796697 L23.5899369,43.7658807 C23.2821603,44.0781743 22.8889495,44.2811651 22.3588305,44.2811651 C21.6582703,44.2811651 21,43.8924862 21,43.0988807 C21,42.1702294 21.7095308,41.6125321 22.5299124,41.6125321 C23.1281652,41.6125321 23.5724229,41.7815505 23.948974,42.161578 L24.0598248,41.6973578 C24.0685819,41.6633853 24.0771253,41.5618899 24.0771253,41.5028073 C24.0771253,41.1314312 23.6751575,40.8864495 23.111292,40.8864495 C22.6839075,40.8864495 22.2990266,41.0303578 21.9658333,41.2751284 L21.7095308,40.4981927 C22.1881757,40.160578 22.7522549,40 23.3419642,40 C24.3163409,40 25.1879831,40.3629358 25.1879831,41.2920092 C25.1879831,41.3846422 25.1625664,41.6211835 25.1367226,41.7309083 L24.5897303,44.1796697 L23.5042891,44.1796697 Z" id="Fill-27" fill="#FFFFFF"></path>
                        <path d="M25,44.1796697 L25.9145728,40.1014954 L27.000014,40.1014954 L26.8804061,40.6334495 C27.2392296,40.2449817 27.6837009,40 28.3417576,40 L28.1025419,41.0639083 C28.0341946,41.0472385 27.8804131,41.0132661 27.7095447,41.0132661 C27.3077906,41.0132661 26.9231232,41.2329266 26.6839075,41.5028073 L26.0856547,44.1796697 L25,44.1796697 Z" id="Fill-29" fill="#FFFFFF"></path>
                        <path d="M29.1364881,42.8251743 C29.1364881,43.4079817 29.5299124,43.7791468 30.0510609,43.7791468 C30.4357282,43.7791468 30.7774649,43.5681376 30.9998073,43.2896055 L31.3161274,41.8794312 C31.136502,41.6008991 30.7864355,41.4063486 30.3502941,41.4063486 C29.6409768,41.4063486 29.1364881,42.0733486 29.1364881,42.8251743 M31.4955391,41.094055 L31.9573108,39 L33.0512954,39 L31.7862289,44.6320459 L30.6922443,44.6320459 L30.8118522,44.1256239 C30.4613585,44.5305505 30.0683613,44.7335413 29.5726295,44.7335413 C28.6409699,44.7335413 28,44.1256239 28,43.0448349 C28,41.8116972 28.777451,40.4523761 30.1794257,40.4523761 C30.7349614,40.4523761 31.2221498,40.6887064 31.4955391,41.094055" id="Fill-31" fill="#FFFFFF"></path>
                        <polygon id="Fill-33" fill="#FFFFFF" points="36.6407563 44.6318349 37.6663935 40.0556789 36 40.0556789 36.2306723 39 40.7772653 39 40.5468066 40.0556789 38.8799859 40.0556789 37.8628921 44.6318349"></polygon>
                        <path d="M42.3075839,41.908367 C42.3075839,41.3171193 41.9485468,40.9541835 41.3502941,40.9541835 C40.6241036,40.9541835 40.1196148,41.6382752 40.1196148,42.3727982 C40.1196148,42.9638349 40.4871953,43.3269817 41.0854481,43.3269817 C41.8118522,43.3269817 42.3075839,42.6426789 42.3075839,41.908367 M39,42.4234404 C39,41.1569633 39.9914636,40 41.3844677,40 C42.7007947,40 43.4359558,40.7851651 43.4359558,41.8575138 C43.4359558,43.1242018 42.4442786,44.2811651 41.0425175,44.2811651 C39.7266176,44.2811651 39,43.495789 39,42.4234404" id="Fill-35" fill="#FFFFFF"></path>
                        <path d="M46,43.762055 L46.7520343,42.8753945 C47.1452451,43.3989083 47.8887359,43.7536147 48.6751575,43.7536147 C49.2904971,43.7536147 49.5382562,43.4073486 49.5382562,43.1201651 C49.5382562,42.3265596 46.7605777,42.4786972 46.7605777,40.8319817 C46.7605777,39.9033303 47.5897163,39 48.9912639,39 C49.8972933,39 50.7520622,39.3289633 51.2646672,39.9117706 L50.5040895,40.7728991 C50.0767051,40.2833578 49.3846883,40.0552569 48.8033087,40.0552569 C48.3673809,40.0552569 48.0425175,40.3088899 48.0425175,40.6127431 C48.0425175,41.3472661 50.8287394,41.254211 50.8287394,42.8838349 C50.8287394,43.9141927 49.9914845,44.8177339 48.5809663,44.8177339 C47.4615651,44.8177339 46.4786449,44.3870642 46,43.762055" id="Fill-37" fill="#FFFFFF"></path>
                        <path d="M51.1879552,43.4075596 C51.1879552,43.3569174 51.1964986,43.2301009 51.2223424,43.1288165 L51.6834734,41.0518532 L51,41.0518532 L51.213799,40.1145505 L51.8972724,40.1145505 L52.1452451,39 L53.2306862,39 L52.9829271,40.1145505 L53.8206092,40.1145505 L53.6065966,41.0518532 L52.7689145,41.0518532 L52.3673739,42.841844 C52.3590441,42.8924862 52.3590441,42.9346881 52.3590441,42.9853303 C52.3590441,43.2049908 52.4871953,43.3400367 52.7605847,43.3400367 C52.8718627,43.3400367 53.0083438,43.2976239 53.0598179,43.255211 L53.0942051,44.1167615 C52.9399964,44.2266972 52.6836939,44.2942202 52.4190616,44.2942202 C51.6834734,44.2942202 51.1879552,44.0154771 51.1879552,43.4075596" id="Fill-39" fill="#FFFFFF"></path>
                        <path d="M57.3073704,41.908367 C57.3073704,41.3171193 56.9483333,40.9541835 56.3502941,40.9541835 C55.62389,40.9541835 55.1196148,41.6382752 55.1196148,42.3727982 C55.1196148,42.9638349 55.4869818,43.3269817 56.0852345,43.3269817 C56.8118522,43.3269817 57.3073704,42.6426789 57.3073704,41.908367 M54,42.4234404 C54,41.1569633 54.99125,40 56.3844677,40 C57.7007947,40 58.4357422,40.7851651 58.4357422,41.8575138 C58.4357422,43.1242018 57.4442786,44.2811651 56.0425175,44.2811651 C54.726404,44.2811651 54,43.495789 54,42.4234404" id="Fill-41" fill="#FFFFFF"></path>
                        <path d="M61.9058367,41.908367 C61.9058367,41.3255596 61.5209558,40.9541835 60.9912639,40.9541835 C60.6153536,40.9541835 60.2731897,41.1654037 60.0508473,41.4437248 L59.726411,42.8538991 C59.9058228,43.1328532 60.2563165,43.3269817 60.6920307,43.3269817 C61.410105,43.3269817 61.9058367,42.6599817 61.9058367,41.908367 M59.5553291,43.6392752 L59.0852276,45.7333303 L58,45.7333303 L59.2646393,40.1014954 L60.3500805,40.1014954 L60.2304726,40.6081284 C60.5809663,40.2027798 60.9829341,40 61.4784523,40 C62.4098983,40 63.0423248,40.6081284 63.0423248,41.6889174 C63.0423248,42.9131927 62.2734173,44.2811651 60.8716561,44.2811651 C60.3161204,44.2811651 59.828932,44.0446239 59.5553291,43.6392752" id="Fill-43" fill="#FFFFFF"></path>
                        <path d="M69.0085713,40.1991651 L67.5809663,42.6226055 L69.359065,42.6226055 L69.0085713,40.1991651 Z M69.5982807,44.6320459 L69.452829,43.6778624 L67.0085574,43.6778624 L66.4444783,44.6320459 L65,44.6320459 L68.452822,39 L69.974191,39 L70.9143941,44.6320459 L69.5982807,44.6320459 Z" id="Fill-45" fill="#FFFFFF"></path>
                        <polygon id="Fill-47" fill="#FFFFFF" points="74.6407563 44.6318349 75.6663935 40.0556789 74 40.0556789 74.2306723 39 78.7774789 39 78.5468066 40.0556789 76.8799859 40.0556789 75.8631057 44.6318349"></polygon>
                        <path d="M78,44.1796697 L78.9145728,40.1014954 L80.000014,40.1014954 L79.8804061,40.6334495 C80.2392296,40.2449817 80.6834873,40 81.3417576,40 L81.1025419,41.0639083 C81.0341946,41.0472385 80.8804131,41.0132661 80.7095447,41.0132661 C80.3077906,41.0132661 79.9231232,41.2329266 79.6839075,41.5028073 L79.0854411,44.1796697 L78,44.1796697 Z" id="Fill-49" fill="#FFFFFF"></path>
                        <path d="M83.7180882,43.2170459 L83.8293662,42.7190642 C83.6668277,42.4827339 83.3077906,42.3303853 82.8972794,42.3303853 C82.418848,42.3303853 82.1110714,42.6175688 82.1110714,43.0144771 C82.1110714,43.3689725 82.4017612,43.5550826 82.8549894,43.5550826 C83.2308998,43.5550826 83.512619,43.4196147 83.7180882,43.2170459 Z M83.5042891,44.1796697 L83.5897233,43.7658807 C83.2821603,44.0781743 82.8889495,44.2811651 82.3590441,44.2811651 C81.6580567,44.2811651 81,43.8924862 81,43.0988807 C81,42.1702294 81.7097444,41.6125321 82.5299124,41.6125321 C83.1281652,41.6125321 83.5724229,41.7815505 83.948974,42.161578 L84.0598248,41.6973578 C84.0685819,41.6633853 84.0771253,41.5618899 84.0771253,41.5028073 C84.0771253,41.1314312 83.6753711,40.8864495 83.111292,40.8864495 C82.6839075,40.8864495 82.2990266,41.0303578 81.9660469,41.2751284 L81.7097444,40.4981927 C82.1881757,40.160578 82.7522549,40 83.3419642,40 C84.3165545,40 85.1881967,40.3629358 85.1881967,41.2920092 C85.1881967,41.3846422 85.1625664,41.6211835 85.1367226,41.7309083 L84.5897303,44.1796697 L83.5042891,44.1796697 Z" id="Fill-51" fill="#FFFFFF"></path>
                        <path d="M87.7864355,44.1796697 L88.3419712,41.7057982 C88.3592716,41.6298349 88.3763585,41.5454312 88.3763585,41.4692569 C88.3763585,41.0980917 88.0685819,40.9541835 87.6666141,40.9541835 C87.2992471,40.9541835 86.94021,41.1989541 86.7009944,41.427055 L86.0856547,44.1796697 L85,44.1796697 L85.9145728,40.1014954 L87.000014,40.1014954 L86.8804061,40.6250092 C87.2052695,40.321156 87.6497408,40 88.256537,40 C89.051502,40 89.5470202,40.4053486 89.5470202,41.0387982 C89.5470202,41.1147615 89.5216035,41.2920092 89.5043031,41.3764128 L88.8804201,44.1796697 L87.7864355,44.1796697 Z" id="Fill-53" fill="#FFFFFF"></path>
                        <path d="M93.2650804,41.748 C93.2734103,41.7309083 93.2734103,41.6802661 93.2734103,41.6633853 C93.2734103,41.2495963 92.9658473,40.8782202 92.316334,40.8782202 C91.726411,40.8782202 91.2904832,41.3002385 91.205049,41.748 L93.256537,41.748 L93.2650804,41.748 Z M90,42.4485505 C90,41.1229908 91.008764,40 92.3844677,40 C93.4444922,40 94.2394572,40.6756514 94.2394572,41.8155229 C94.2394572,42.0602936 94.1879831,42.3643578 94.1535958,42.4909633 L91.0854411,42.4909633 L91.0854411,42.5924587 C91.0854411,42.9383028 91.4530217,43.402945 92.2219292,43.402945 C92.5899369,43.402945 93.0083508,43.3012385 93.2650804,43.1071101 L93.5982737,43.8589358 C93.1967331,44.1288165 92.6497408,44.2811651 92.1367086,44.2811651 C90.8376821,44.2811651 90,43.588633 90,42.4485505 Z" id="Fill-55" fill="#FFFFFF"></path>
                        <path d="M95,43.7429633 C95,43.3374037 95.3507073,43 95.7610049,43 C96.1110714,43 96.3932177,43.2871835 96.3932177,43.6330275 C96.3932177,44.0383761 96.0427241,44.3764128 95.6328536,44.3764128 C95.2821464,44.3764128 95,44.0892294 95,43.7429633" id="Fill-57" fill="#FFFFFF"></path>
                        <path d="M96.1753606,39.5876606 L95.9120098,39.5876606 L95.8193137,39.9923761 L96.1215371,39.9923761 C96.2924054,39.9923761 96.3846743,39.8815963 96.3846743,39.7562569 C96.3846743,39.6648899 96.331278,39.5876606 96.1753606,39.5876606 Z M96.1898844,40.608945 L95.9848424,40.1464128 L95.78514,40.1464128 L95.682619,40.608945 L95.5023529,40.608945 L95.7605777,39.4384771 L96.2191456,39.4384771 C96.4483228,39.4384771 96.5751925,39.5876606 96.5751925,39.7469725 C96.5751925,39.9634679 96.3846743,40.1417706 96.184972,40.1417706 L96.3998389,40.608945 L96.1898844,40.608945 Z M96.0286274,39.1685963 C95.5510504,39.1685963 95.1708683,39.5444037 95.1708683,40.0212844 C95.1708683,40.4888807 95.5510504,40.8739725 96.0286274,40.8739725 C96.5068452,40.8739725 96.8970658,40.4888807 96.8970658,40.0212844 C96.8970658,39.5444037 96.5068452,39.1685963 96.0286274,39.1685963 Z M96.0286274,41.0427798 C95.4583543,41.0427798 95,40.5848899 95,40.0212844 C95,39.4528257 95.4634804,39 96.0339671,39 C96.6091526,39 97.0677205,39.4528257 97.0677205,40.0212844 C97.0677205,40.5848899 96.6044537,41.0427798 96.0286274,41.0427798 Z" id="Fill-59" fill="#FFFFFF"></path>
                    </g>
                </g>
            </g>
        </g>
    </g>
</svg>