<?xml version="1.0" encoding="UTF-8"?>
<svg width="16px" height="17px" viewBox="0 0 16 17" version="1.1" xmlns="http://www.w3.org/2000/svg" xmlns:xlink="http://www.w3.org/1999/xlink">
    <!-- Generator: Sketch 48.2 (47327) - http://www.bohemiancoding.com/sketch -->
    <title>serach icon - find a dealer cta</title>
    <desc>Created with Sketch.</desc>
    <defs></defs>
    <g id="traneinfo.com-dealer-page" stroke="none" stroke-width="1" fill="none" fill-rule="evenodd" transform="translate(-1082.000000, -1672.000000)">
        <g id="D-footer" transform="translate(-16.000000, 1376.000000)" fill="#FFFFFF">
            <g id="footer" transform="translate(-3.000000, 0.000000)">
                <g id="dealer-locator" transform="translate(46.000000, 63.000000)">
                    <g id="address-entry" transform="translate(57.000000, 197.898649)">
                        <path d="M1012.83125,49.8087892 L1008.28181,45.1908699 C1008.98153,44.2584628 1009.37528,43.0596537 1009.37528,41.7717598 C1009.37528,38.5749354 1006.83806,36 1003.68806,36 C1000.53806,36 998,38.5757879 998,41.7726122 C998,44.9694366 1000.53722,47.544372 1003.68722,47.544372 C1004.95625,47.544372 1006.09319,47.144769 1007.05625,46.4346477 L1011.60653,51.052567 C1011.78126,51.2298906 1012.00028,51.318969 1012.21931,51.318969 C1012.43834,51.318969 1012.65653,51.2298906 1012.83209,51.052567 C1013.18155,50.6970801 1013.18155,50.1642761 1012.83127,49.8088105 L1012.83125,49.8087892 Z M1003.68806,45.7686426 C1001.50028,45.7686426 999.75056,43.9929133 999.75056,41.7726122 C999.75056,39.5523112 1001.50028,37.7765818 1003.68806,37.7765818 C1005.87584,37.7765818 1007.62556,39.5523112 1007.62556,41.7726122 C1007.62556,43.9920608 1005.87502,45.7686426 1003.68806,45.7686426 Z" id="serach-icon---find-a-dealer-cta"></path>
                    </g>
                </g>
            </g>
        </g>
    </g>
</svg>