<?xml version="1.0" encoding="UTF-8"?>
<svg width="13px" height="18px" viewBox="0 0 13 18" version="1.1" xmlns="http://www.w3.org/2000/svg" xmlns:xlink="http://www.w3.org/1999/xlink">
    <!-- Generator: Sketch 49 (51002) - http://www.bohemiancoding.com/sketch -->
    <title>location icon find a dealer</title>
    <desc>Created with Sketch.</desc>
    <defs></defs>
    <g id="Symbols" stroke="none" stroke-width="1" fill="none" fill-rule="evenodd">
        <g id="NAV--with-new-number" transform="translate(-973.000000, -82.000000)" fill="#FFFFFF">
            <g id="Group-3">
                <g transform="translate(949.000000, 68.000000)">
                    <g id="Group-2" transform="translate(0.000000, 12.000000)">
                        <path d="M30.4849372,2.579793 C33.8157469,2.579793 36.5284682,5.42986728 36.5284682,8.89802995 C36.5284682,13.6367077 31.3777316,18.5642457 31.3777316,18.5642457 C30.6394593,19.2510106 30.2274004,19.1995032 29.5406355,18.5642457 C29.5406355,18.5642457 24.4414062,13.6367077 24.4414062,8.89802995 C24.4414062,5.42986728 27.1541276,2.579793 30.4849372,2.579793 Z M30.4849372,11.4733983 C32.0644965,11.4733983 33.3521806,10.2028832 33.3521806,8.623324 C33.3521806,7.04376476 32.0644965,5.7560806 30.4849372,5.7560806 C28.905378,5.7560806 27.634863,7.04376476 27.634863,8.623324 C27.634863,10.2028832 28.905378,11.4733983 30.4849372,11.4733983 Z" id="location-icon-find-a-dealer"></path>
                    </g>
                </g>
            </g>
        </g>
    </g>
</svg>