<?xml version="1.0" encoding="UTF-8"?>
<svg width="59px" height="69px" viewBox="0 0 59 69" version="1.1" xmlns="http://www.w3.org/2000/svg" xmlns:xlink="http://www.w3.org/1999/xlink">
    <!-- Generator: Sketch 49 (51002) - http://www.bohemiancoding.com/sketch -->
    <title>ac maintenance guide icon</title>
    <desc>Created with Sketch.</desc>
    <defs>
        <polygon id="path-1" points="0.000730093257 0.0014375 58.4074605 0.0014375 58.4074605 69 0.000730093257 69"></polygon>
    </defs>
    <g id="Symbols" stroke="none" stroke-width="1" fill="none" fill-rule="evenodd">
        <g id="FOOTER-CTAs" transform="translate(-560.000000, -77.000000)">
            <g id="A/C-MAINTENANCE-GUIDE">
                <g transform="translate(532.000000, 27.000000)">
                    <g id="ac-maintenance-guide-icon" transform="translate(28.000000, 50.000000)">
                        <g id="Group-3">
                            <mask id="mask-2" fill="white">
                                <use xlink:href="#path-1"></use>
                            </mask>
                            <g id="Clip-2"></g>
                            <path d="M55.4892778,64.6889375 C55.4863574,65.4795625 54.8321939,66.125 54.0290913,66.127875 L4.38274982,66.127875 C3.57818705,66.125 2.92110312,65.4795625 2.92110312,64.6889375 L2.92110312,17.25 L13.1438689,17.25 C15.5619378,17.247125 17.5200479,15.3194375 17.5229683,12.940375 L17.5229683,2.875 L54.0290913,2.875 C54.8321939,2.877875 55.4863574,3.519 55.4892778,4.3139375 L55.4892778,64.6889375 Z M14.6040554,4.907625 L14.6040554,12.940375 C14.601135,13.7295625 13.9469715,14.3735625 13.1438689,14.3764375 L4.98726704,14.3764375 L14.6040554,4.907625 Z M54.0290913,0.0014375 L16.0627817,0.0014375 C15.6787527,0.0014375 15.3034848,0.152375 15.0304299,0.4211875 L0.428564742,14.7961875 C0.155509864,15.065 0.000730093257,15.433 0.000730093257,15.815375 L0.000730093257,64.6889375 C0.000730093257,67.0694375 1.95884021,69 4.38274982,69 L54.0290913,69 C56.4486203,69 58.4081906,67.0694375 58.4081906,64.6889375 L58.4081906,4.3139375 C58.4081906,1.932 56.4457,0.0014375 54.0290913,0.0014375 Z" id="Fill-1" fill="#404042" mask="url(#mask-2)"></path>
                        </g>
                        <path d="M17.6554283,35.4398567 L17.6526785,35.4398567 L13.1264625,40.3776509 L11.3500739,38.4397317 C10.8097328,37.8532561 9.93941245,37.8532561 9.40182118,38.4397317 C8.86422991,39.0262072 8.86697973,39.9771676 9.404571,40.5636432 L12.1543985,43.5605183 C12.4128823,43.8455064 12.7593605,44 13.1264625,44 C13.4935645,44 13.8400427,43.8455064 14.0985265,43.5605183 L19.5968065,37.5622682 C20.1343978,36.9742927 20.1343978,36.0278322 19.5968065,35.4398567 C19.0592153,34.8533811 18.1902698,34.8533811 17.6554283,35.4398567" id="Fill-4" fill="#F93822"></path>
                        <path d="M27.5015,23 L45.5,23 C46.3295,23 47,22.3303303 47,21.5 C47,20.6711712 46.3295,20 45.5,20 L27.5015,20 C26.672,20 26,20.6711712 26,21.5 C26,22.3303303 26.672,23 27.5015,23" id="Fill-6" fill="#F93822"></path>
                        <path d="M17.6521141,20.43993 L17.6521141,20.4369296 L13.1254727,25.3755469 L11.3489172,23.4388049 C10.8112754,22.8537317 9.93949811,22.8537317 9.40323135,23.4388049 C8.86558955,24.0253782 8.86558955,24.9749969 9.40323135,25.5615702 L12.1519422,28.5604451 C12.4132004,28.8454807 12.7569612,29 13.1254727,29 C13.4926091,29 13.83912,28.8454807 14.0976281,28.5604451 L19.5977999,22.559695 C20.1340667,21.9731216 20.1340667,21.0235029 19.5977999,20.43993 C19.0601581,19.8533567 18.1897559,19.8533567 17.6521141,20.43993" id="Fill-8" fill="#F93822"></path>
                        <path d="M17.6545943,49.4389329 L13.1253454,54.3789912 L11.3488458,52.4401834 C10.811221,51.8519383 9.93672116,51.8519383 9.40184629,52.4401834 C8.86422142,53.0269279 8.86697142,53.9768237 9.40459629,54.5650688 L12.1518456,57.563318 C12.4117206,57.8454356 12.7582205,58 13.1253454,58 C13.4924703,58 13.8375952,57.8454356 14.0988452,57.563318 L19.5988438,51.560817 C20.1337187,50.9755732 20.1337187,50.0241767 19.5988438,49.4389329 C19.059844,48.853689 18.1894692,48.853689 17.6545943,49.4389329" id="Fill-10" fill="#F93822"></path>
                        <path d="M27.5013499,29 L39.4986501,29 C40.3280672,29 41,28.3306653 41,27.5007504 C41,26.6723362 40.3280672,26 39.4986501,26 L27.5013499,26 C26.6719328,26 26,26.6723362 26,27.5007504 C26,28.3306653 26.6719328,29 27.5013499,29" id="Fill-12" fill="#F93822"></path>
                        <path d="M39.49985,54 L27.4986499,54 C26.6705671,54 26,54.6708354 26,55.5007504 C26,56.3306653 26.6705671,57 27.4986499,57 L39.49985,57 C40.3294329,57 41,56.3306653 41,55.5007504 C41,54.6708354 40.3294329,54 39.49985,54" id="Fill-14" fill="#F93822"></path>
                        <path d="M27.5015,44 L39.5015,44 C40.3295,44 41,43.3295 41,42.5 C41,41.672 40.3295,41 39.5015,41 L27.5015,41 C26.6705,41 26,41.672 26,42.5 C26,43.3295 26.6705,44 27.5015,44" id="Fill-16" fill="#F93822"></path>
                        <path d="M45.4985,49 L27.4985,49 C26.6705,49 26,49.6696697 26,50.5 C26,51.3303303 26.6705,52 27.4985,52 L45.4985,52 C46.3265,52 47,51.3303303 47,50.5 C47,49.6696697 46.3265,49 45.4985,49" id="Fill-18" fill="#F93822"></path>
                        <path d="M27.5,38 L45.4985,38 C46.3295,38 47,37.3303303 47,36.5015015 C47,35.6696697 46.3295,35 45.4985,35 L27.5,35 C26.672,35 26,35.6696697 26,36.5015015 C26,37.3303303 26.672,38 27.5,38" id="Fill-20" fill="#F93822"></path>
                    </g>
                </g>
            </g>
        </g>
    </g>
</svg>