<?xml version="1.0" encoding="UTF-8"?>
<svg width="40px" height="40px" viewBox="0 0 40 40" version="1.1" xmlns="http://www.w3.org/2000/svg" xmlns:xlink="http://www.w3.org/1999/xlink">
    <!-- Generator: sketchtool 48.2 (47327) - http://www.bohemiancoding.com/sketch -->
    <title>D51FC5D9-F7ED-4894-89F3-9E11ABECC7B2</title>
    <desc>Created with sketchtool.</desc>
    <defs></defs>
    <g id="D-V1-Home-spring-promotion-uerstype-02262018" stroke="none" stroke-width="1" fill="none" fill-rule="evenodd" transform="translate(-865.000000, -316.000000)">
        <g id="trane-promo-hero-V1" transform="translate(-46.000000, -13.000000)" fill="#F93822">
            <g id="user-intent-box" transform="translate(875.000000, 197.000000)">
                <path d="M65.6008661,146.98688 C66.4446013,147.297645 67.3334921,147.476481 68.2675386,147.476481 C72.5331924,147.431343 76,143.96434 76,139.696908 C76,138.540639 75.7777773,137.474681 75.2881762,136.452101 C75.1544959,136.184741 74.9322732,136.007656 74.6666637,135.9625 C74.3993032,135.917362 74.0885291,136.007638 73.9114621,136.184723 L68.8438954,141.297623 L66.6216684,139.075396 L71.689235,134.052718 C71.9114577,133.830496 72.0000001,133.56485 71.9114577,133.297517 C71.8663198,133.030156 71.689235,132.764538 71.4218566,132.676004 C70.4444323,132.231559 69.3766966,132.009336 68.2222052,132.009336 C63.9999737,131.964198 60.532855,135.43121 60.532855,139.696908 C60.532855,140.585799 60.6665353,141.429534 61.0224561,142.275047 L46.399313,156.89819 C45.5989557,156.63083 44.7100648,156.453745 43.7777961,156.453745 C39.4670311,156.49715 36,159.964153 36,164.23154 C36,165.387809 36.2222227,166.453767 36.7118238,167.476347 C36.8455041,167.743708 37.0677268,167.920792 37.3333363,167.965948 C37.6006968,168.011086 37.9114709,167.92081 38.0885379,167.743725 L43.1561059,162.630825 L45.378333,164.853052 L40.3107663,169.87573 C40.1336815,170.052815 40.0434057,170.365331 40.0885436,170.630932 C40.1336815,170.898292 40.3107663,171.163911 40.5781447,171.252444 C41.555569,171.69689 42.6233047,171.919112 43.7777961,171.919112 C48.0451833,171.919112 51.5102575,168.452082 51.5102575,164.186651 C51.5102575,163.252604 51.3331727,162.363714 51.0206564,161.519978 L65.6008661,146.98688 Z M43.7328183,170.231818 C43.2883728,170.231818 42.8890831,170.18668 42.4880155,170.098138 L47.2000258,165.386129 C47.3771107,165.209044 47.4673864,164.986821 47.4673864,164.764617 C47.4673864,164.542412 47.378844,164.320171 47.2000258,164.143104 L43.7781517,160.72123 C43.4222487,160.365327 42.8892609,160.365327 42.5785046,160.72123 L37.8664934,165.519907 C37.777951,165.1206 37.7328131,164.676172 37.7328131,164.231727 C37.7328131,160.898386 40.4446422,158.231713 43.7328271,158.231713 C44.6668736,158.231713 45.4654532,158.408798 46.2224326,158.721314 C46.5331977,158.854995 46.9342564,158.809857 47.199857,158.54423 L62.6216685,143.122418 C62.8890291,142.855057 62.9324336,142.500906 62.7987533,142.144994 C62.3994458,141.297792 62.2223521,140.542546 62.2223521,139.697077 C62.2223521,136.363737 64.9341802,133.697064 68.2223652,133.697064 C68.6668106,133.697064 69.0661004,133.742202 69.4671679,133.830744 L64.800491,138.497421 C64.444588,138.853324 64.444588,139.386312 64.800491,139.697068 L68.2223652,143.118943 C68.39945,143.296027 68.6216727,143.386303 68.8438777,143.386303 C69.0660826,143.386303 69.2883231,143.297761 69.4653901,143.118943 L74.1774005,138.406932 C74.2659429,138.80624 74.3110807,139.250667 74.3110807,139.695113 C74.3110807,143.028453 71.5992526,145.695126 68.3110676,145.695126 C67.4221768,145.695126 66.5784416,145.518041 65.8214622,145.162147 C65.510697,145.028467 65.1096384,145.073605 64.8440378,145.339232 L49.3786706,160.764599 C49.11131,161.03196 49.0679055,161.386111 49.2015858,161.742023 C49.5574888,162.542381 49.7345647,163.342738 49.7345647,164.231629 C49.7779648,167.564969 47.0661589,170.23164 43.7327738,170.23164 L43.7328183,170.231818 Z M75.3786653,166.05301 C75.5557501,166.230095 75.6460259,166.452318 75.6460259,166.674523 C75.6460259,166.896728 75.5574835,167.118968 75.3786653,167.296035 L71.7779463,170.896753 C71.6008615,171.073838 71.3786388,171.164114 71.1564338,171.164114 C70.9342289,171.164114 70.7119884,171.075571 70.5349214,170.896753 L70.4897835,170.851615 L58.0453118,158.363589 C57.6894088,158.007686 57.6894088,157.474698 58.0453118,157.163942 C58.4012148,156.808039 58.9342026,156.808039 59.2449589,157.163942 L71.1565405,169.075524 L73.5558346,166.67623 L61.644253,154.764648 C61.28835,154.408745 61.28835,153.875757 61.644253,153.565001 C62.000156,153.209098 62.5331439,153.209098 62.8439001,153.565001 L75.3786653,166.05301 Z M40.9777011,140.098287 C41.1547859,140.275372 41.3770087,140.365648 41.5992136,140.365648 C41.8214185,140.365648 42.043659,140.277105 42.2207261,140.098287 L42.7988607,139.520152 L51.4202129,148.141505 C51.5972977,148.318589 51.8195204,148.408865 52.0417253,148.408865 C52.2639303,148.408865 52.4861708,148.320323 52.6632378,148.141505 C53.0191408,147.785602 53.0191408,147.252614 52.6632378,146.941858 L44.0001077,138.275172 L44.4897088,137.785571 C44.6667936,137.608486 44.7570694,137.386263 44.7570694,137.164058 C44.7570694,136.941853 44.668527,136.719613 44.4897088,136.542546 L40.9341455,132.986983 C40.5782425,132.63108 40.0452546,132.63108 39.7344984,132.986983 L37.4237382,135.297743 C37.0678352,135.653646 37.0678352,136.186634 37.4237382,136.49739 L40.9777011,140.098287 Z M40.311033,134.853387 L42.6669493,137.209303 L42.1773482,137.698904 L41.5992136,138.277039 L39.2432973,135.921122 L40.311033,134.853387 Z" id="service-&amp;-repairs-icon"></path>
            </g>
        </g>
    </g>
</svg>