<?xml version="1.0" encoding="UTF-8"?>
<svg width="21px" height="22px" viewBox="0 0 21 22" version="1.1" xmlns="http://www.w3.org/2000/svg" xmlns:xlink="http://www.w3.org/1999/xlink">
    <!-- Generator: Sketch 48.2 (47327) - http://www.bohemiancoding.com/sketch -->
    <title>checkmark-circle copy</title>
    <desc>Created with Sketch.</desc>
    <defs></defs>
    <g id="traneinfo.com-HVAC-become-part-of-the-trane-family" stroke="none" stroke-width="1" fill="none" fill-rule="evenodd" transform="translate(-801.000000, -732.000000)">
        <g id="form-field-section" transform="translate(0.000000, 294.000000)" fill="#36D4A2">
            <path d="M811.452148,459.095703 C810.750322,459.095703 810.064619,459.02946 809.39502,458.896973 C808.72542,458.764485 808.077314,458.569337 807.450684,458.311523 C806.824053,458.05371 806.226077,457.733238 805.656738,457.350098 C805.087399,456.966958 804.555667,456.528323 804.061523,456.03418 C803.56738,455.547198 803.130536,455.017255 802.750977,454.444336 C802.371417,453.871416 802.050945,453.273441 801.789551,452.650391 C801.528156,452.027341 801.331218,451.379235 801.19873,450.706055 C801.066243,450.032874 801,449.348962 801,448.654297 C801,447.95247 801.066243,447.266768 801.19873,446.597168 C801.331218,445.927568 801.528156,445.279463 801.789551,444.652832 C802.050945,444.026201 802.371417,443.428226 802.750977,442.858887 C803.130536,442.289548 803.56738,441.757815 804.061523,441.263672 C804.555667,440.769529 805.087399,440.332684 805.656738,439.953125 C806.226077,439.573566 806.824053,439.253094 807.450684,438.991699 C808.077314,438.730305 808.72542,438.533367 809.39502,438.400879 C810.064619,438.268391 810.750322,438.202148 811.452148,438.202148 C812.146813,438.202148 812.830726,438.268391 813.503906,438.400879 C814.177087,438.533367 814.826983,438.730305 815.453613,438.991699 C816.080244,439.253094 816.67822,439.573566 817.247559,439.953125 C817.816897,440.332684 818.34863,440.769529 818.842773,441.263672 C819.336917,441.757815 819.773761,442.289548 820.15332,442.858887 C820.53288,443.428226 820.851561,444.026201 821.109375,444.652832 C821.367189,445.279463 821.564127,445.927568 821.700195,446.597168 C821.836264,447.266768 821.904297,447.95247 821.904297,448.654297 C821.904297,449.348962 821.836264,450.032874 821.700195,450.706055 C821.564127,451.379235 821.367189,452.027341 821.109375,452.650391 C820.851561,453.273441 820.53288,453.871416 820.15332,454.444336 C819.773761,455.017255 819.336917,455.547198 818.842773,456.03418 C818.34863,456.528323 817.816897,456.966958 817.247559,457.350098 C816.67822,457.733238 816.080244,458.05371 815.453613,458.311523 C814.826983,458.569337 814.177087,458.764485 813.503906,458.896973 C812.830726,459.02946 812.146813,459.095703 811.452148,459.095703 Z M811.452148,439.297852 C810.163079,439.297852 808.951015,439.543129 807.815918,440.033691 C806.680821,440.524254 805.688969,441.193843 804.840332,442.04248 C803.991695,442.891118 803.322105,443.88297 802.831543,445.018066 C802.340981,446.153163 802.095703,447.365228 802.095703,448.654297 C802.095703,449.943366 802.340981,451.155431 802.831543,452.290527 C803.322105,453.425624 803.991695,454.415686 804.840332,455.260742 C805.688969,456.105798 806.680821,456.773598 807.815918,457.26416 C808.951015,457.754723 810.163079,458 811.452148,458 C812.741217,458 813.953282,457.754723 815.088379,457.26416 C816.223476,456.773598 817.213537,456.105798 818.058594,455.260742 C818.90365,454.415686 819.571449,453.425624 820.062012,452.290527 C820.552574,451.155431 820.797852,449.943366 820.797852,448.654297 C820.797852,447.365228 820.552574,446.153163 820.062012,445.018066 C819.571449,443.88297 818.90365,442.891118 818.058594,442.04248 C817.213537,441.193843 816.223476,440.524254 815.088379,440.033691 C813.953282,439.543129 812.741217,439.297852 811.452148,439.297852 Z M809.25,453.047852 C809.178385,453.047852 809.108562,453.035319 809.040527,453.010254 C808.972493,452.985189 808.913412,452.944011 808.863281,452.886719 L805.56543,449.588867 C805.458007,449.481445 805.404297,449.35254 805.404297,449.202148 C805.404297,449.051757 805.458007,448.922852 805.56543,448.81543 C805.672852,448.708007 805.801757,448.654297 805.952148,448.654297 C806.10254,448.654297 806.231445,448.708007 806.338867,448.81543 L809.25,451.726562 L816.56543,444.411133 C816.672852,444.30371 816.801757,444.25 816.952148,444.25 C817.10254,444.25 817.231445,444.30371 817.338867,444.411133 C817.44629,444.518555 817.5,444.64746 817.5,444.797852 C817.5,444.948243 817.44629,445.077148 817.338867,445.18457 L809.636719,452.886719 C809.586588,452.944011 809.527507,452.985189 809.459473,453.010254 C809.391438,453.035319 809.321615,453.047852 809.25,453.047852 Z" id="checkmark-circle-copy"></path>
        </g>
    </g>
</svg>