<svg xmlns="http://www.w3.org/2000/svg" width="47.75" height="47.75" viewBox="0 0 47.75 47.75"><path fill="none" stroke="#f93822" stroke-linejoin="round" stroke-miterlimit="50" stroke-width="2" d="M27.87 23.87a4 4 0 1 1-8 0 4 4 0 0 1 8 0z"/><path fill="none" stroke="#f93822" stroke-linecap="round" stroke-linejoin="round" stroke-miterlimit="50" stroke-width="2" d="M21.87 17.12c-1.5-2.62-3-7.42-3-10 0-3.3 3.47-4.44 6-5 2.7-.6 4-.3 4 3 0 2.58-1.52 9.08-3 12M31.87 3.87a22.03 22.03 0 0 1 9 6.53"/><path fill="none" stroke="#f93822" stroke-linejoin="round" stroke-miterlimit="50" stroke-width="2" d="M31.87 7.87c1.87.93 3.56 2.18 5 3.68"/><path fill="none" stroke="#f93822" stroke-linecap="round" stroke-linejoin="round" stroke-miterlimit="50" stroke-width="2" d="M25.87 30.87c1.5 2.63 3 7.42 3 10 0 3.31-3.47 4.44-6 5-2.69.6-4 .31-4-3 0-2.58 1.52-9.08 3-12M15.87 44.4a22.03 22.03 0 0 1-9-6.53"/><path fill="none" stroke="#f93822" stroke-linejoin="round" stroke-miterlimit="50" stroke-width="2" d="M15.86 40.55a18.13 18.13 0 0 1-4.99-3.68"/><path fill="none" stroke="#f93822" stroke-linecap="round" stroke-linejoin="round" stroke-miterlimit="50" stroke-width="2" d="M17.12 25.87c-2.62 1.5-7.42 3-10 3-3.3 0-4.44-3.47-5-6-.6-2.69-.3-4 3-4 2.58 0 9.08 1.52 12 3M3.87 15.87a22.03 22.03 0 0 1 6.53-9"/><path fill="none" stroke="#f93822" stroke-linejoin="round" stroke-miterlimit="50" stroke-width="2" d="M7.87 15.86a17.93 17.93 0 0 1 3.68-4.99"/><path fill="none" stroke="#f93822" stroke-linecap="round" stroke-linejoin="round" stroke-miterlimit="50" stroke-width="2" d="M30.87 21.87c2.63-1.5 7.42-3 10-3 3.31 0 4.44 3.47 5 6 .6 2.7.31 4-3 4-2.58 0-9.08-1.52-12-3M44.4 31.87a22.03 22.03 0 0 1-6.53 9"/><path fill="none" stroke="#f93822" stroke-linejoin="round" stroke-miterlimit="50" stroke-width="2" d="M40.55 31.87a18.13 18.13 0 0 1-3.68 5"/></svg>