<?xml version="1.0" encoding="UTF-8"?>
<svg width="32px" height="36px" viewBox="0 0 32 36" version="1.1" xmlns="http://www.w3.org/2000/svg" xmlns:xlink="http://www.w3.org/1999/xlink">
    <!-- Generator: sketchtool 48.2 (47327) - http://www.bohemiancoding.com/sketch -->
    <title>8D367F75-BC05-44D8-88D9-15A1772D9EE4</title>
    <desc>Created with sketchtool.</desc>
    <defs></defs>
    <g id="PS-splash-page-dynamic-content-flow-V2" stroke="none" stroke-width="1" fill="none" fill-rule="evenodd" transform="translate(-407.000000, -1694.000000)">
        <g id="section---comfort-specialist" transform="translate(-20.000000, 1352.000000)" fill="#F93822">
            <g id="CTAs" transform="translate(390.000000, 318.000000)">
                <path d="M45.422,24 L45.422,26.85624 L37,26.85624 L37,59.9998404 L68.8484,59.9998404 L68.8484,26.85624 L60.428,26.85624 L60.428,24 L58.6108,24 L58.6108,26.85624 L47.2372,26.85624 L47.2372,24 L45.422,24 Z M67.0328,58.1828004 L38.8172,58.1828004 L38.8172,36.5908 L67.0312,36.5908 L67.0328,58.1828004 Z M58.6124,28.6736 L58.6124,30.95172 L60.4296,30.95172 L60.4296,28.6736 L67.0328,28.6736 L67.0328,34.7752 L38.8172,34.773636 L38.8172,28.673636 L45.4204,28.673636 L45.4204,30.951756 L47.2376,30.951756 L47.2376,28.673636 L58.6124,28.6736 Z M43,42.60312 L43,40 L46.025,40 L46.025,42.60312 L43,42.60312 Z M51,42.60312 L51,40 L54.025,40 L54.025,42.60312 L51,42.60312 Z M60,42.60312 L60,40 L63.025,40 L63.025,42.60312 L60,42.60312 Z M43,48.60312 L43,46 L46.025,46 L46.025,48.60312 L43,48.60312 Z M51,48.60312 L51,46 L54.025,46 L54.025,48.60312 L51,48.60312 Z M60,48.60312 L60,46 L63.025,46 L63.025,48.60312 L60,48.60312 Z M43,55.60312 L43,53 L46.025,53 L46.025,55.60312 L43,55.60312 Z M51,55.60312 L51,53 L54.025,53 L54.025,55.60312 L51,55.60312 Z" id="Fill-9"></path>
            </g>
        </g>
    </g>
</svg>