<svg xmlns="http://www.w3.org/2000/svg" width="45" height="53" viewBox="0 0 45 53"><path fill="#f93822" d="M4.92 42c-.51 0-.92.38-.92.85v9.3c0 .47.41.85.92.85h38.16c.51 0 .92-.38.92-.85v-9.3c0-.47-.41-.85-.92-.85zm.91 1.7h36.34v7.6H5.83z"/><path fill="#f93822" d="M23.5 8C14.93 8 8 14.95 8 23.55v18.54a.9.9 0 0 0 .89.91.9.9 0 0 0 .89-.91V23.55A13.7 13.7 0 0 1 23.5 9.79a13.7 13.7 0 0 1 13.72 13.76v18.54a.9.9 0 0 0 .89.91.9.9 0 0 0 .89-.91V23.55C39 14.95 32.07 8 23.5 8zM22.99 0c-.27 0-.52.09-.71.25a.79.79 0 0 0-.28.59v3.32c0 .22.1.43.29.59.19.16.44.25.71.25.27 0 .52-.09.71-.25a.77.77 0 0 0 .29-.59V.84c0-.22-.1-.44-.29-.6-.2-.16-.46-.24-.72-.24zM9.03 6c-.42 0-.8.25-.95.64-.16.39-.07.84.23 1.13l2.92 2.91a1 1 0 0 0 .73.32c.28 0 .54-.11.74-.3.19-.2.3-.47.3-.74a1 1 0 0 0-.32-.73L9.77 6.31c-.2-.2-.46-.31-.74-.31zM.82 19c-.42.01-.77.26-.81.58-.05.33.22.63.63.71l3.26.68c.22.05.46.04.66-.05s.35-.23.41-.41a.5.5 0 0 0-.1-.51.88.88 0 0 0-.54-.3l-3.26-.68L.82 19zM.84 31c-.22 0-.44.1-.59.29A1.1 1.1 0 0 0 0 32c0 .27.09.52.25.71.15.19.37.29.59.29h3.32c.22 0 .44-.1.59-.29.16-.19.25-.44.25-.71 0-.27-.09-.52-.25-.71a.75.75 0 0 0-.59-.29z"/><path fill="#f93822" d="M22.99 0c-.27 0-.52.09-.71.25a.79.79 0 0 0-.28.59v3.32c0 .22.1.43.29.59.19.16.44.25.71.25.27 0 .52-.09.71-.25a.77.77 0 0 0 .29-.59V.84c0-.22-.1-.44-.29-.6-.2-.16-.46-.24-.72-.24zM38.94 6c-.27.01-.52.12-.71.31l-2.91 2.92a1 1 0 0 0-.32.73c0 .27.11.54.3.74.2.19.46.3.74.3.28 0 .54-.12.74-.32l2.91-2.91c.3-.3.39-.75.23-1.14a1.05 1.05 0 0 0-.98-.63zM44.15 19l-.22.02-3.27.68a.9.9 0 0 0-.54.3.53.53 0 0 0-.09.51c.06.18.21.32.41.41.2.09.44.1.66.05l3.27-.68c.41-.08.68-.39.62-.72-.05-.33-.41-.57-.84-.57zM40.84 31c-.22 0-.43.1-.59.29A1.1 1.1 0 0 0 40 32c0 .27.09.52.25.71.16.19.37.29.59.29h3.32c.22 0 .44-.1.59-.29.16-.19.25-.44.25-.71 0-.27-.09-.52-.25-.71a.75.75 0 0 0-.59-.29zM23.07 11A12.04 12.04 0 0 0 11 23.02v14.05c0 .25.09.48.26.66a.93.93 0 0 0 1.31 0 .9.9 0 0 0 .26-.66V23.02c0-5.66 4.55-10.19 10.24-10.19a.91.91 0 0 0 .66-1.57.95.95 0 0 0-.66-.26z"/></svg>