<?xml version="1.0" encoding="UTF-8"?>
<svg width="79px" height="68px" viewBox="0 0 79 68" version="1.1" xmlns="http://www.w3.org/2000/svg" xmlns:xlink="http://www.w3.org/1999/xlink">
    <!-- Generator: Sketch 49 (51002) - http://www.bohemiancoding.com/sketch -->
    <title>ac Maintenance guide icon</title>
    <desc>Created with Sketch.</desc>
    <defs></defs>
    <g id="Symbols" stroke="none" stroke-width="1" fill="none" fill-rule="evenodd">
        <g id="FOOTER-CTAs" transform="translate(-989.000000, -80.000000)">
            <g id="financing-&amp;-offers">
                <g transform="translate(975.000000, 27.000000)">
                    <g id="ac-Maintenance-guide-icon" transform="translate(15.000000, 54.000000)">
                        <path d="M4.27777778,0 C1.9192963,0 0,1.95629516 0,4.36024182 L0,50.8694879 C0,53.2734346 1.9192963,55.2297297 4.27777778,55.2297297 L44.2037037,55.2297297 L44.2037037,52.3229018 L4.27777778,52.3229018 C3.49209259,52.3229018 2.85185185,51.670319 2.85185185,50.8694879 L2.85185185,4.36024182 C2.85185185,3.55941074 3.49209259,2.90682788 4.27777778,2.90682788 L72.7222222,2.90682788 C73.5079074,2.90682788 74.1481481,3.55941074 74.1481481,4.36024182 L74.1481481,50.8694879 C74.1481481,51.670319 73.5079074,52.3229018 72.7222222,52.3229018 L58.462963,52.3229018 L58.462963,55.2297297 L72.7222222,55.2297297 C75.0807037,55.2297297 77,53.2734346 77,50.8694879 L77,4.36024182 C77,1.95629516 75.0807037,0 72.7222222,0 L4.27777778,0 Z" id="Fill-1" stroke="#F6F6F6" stroke-width="0.81" fill="#404042"></path>
                        <path d="M68.3809642,31.2059079 L66.0294339,33.1338209 C64.411684,34.4619064 63.3589307,37.0524027 63.583499,39.1598262 L63.911054,42.2188011 C63.9425222,42.5252823 63.8781555,42.78944 63.7265361,42.9601938 C63.5033982,43.2155949 63.1958684,43.2214326 62.9527053,43.1951628 L59.9546471,42.8624117 C57.9163681,42.6391182 55.3145227,43.7512074 54.0486442,45.3565854 L52.1591237,47.7573553 C51.7600502,48.2637791 51.2022054,48.2637791 50.8059925,47.7573553 L48.9150417,45.3565854 C47.7621625,43.894232 45.5150492,42.8317636 43.5711747,42.8317636 C43.3795049,42.8317636 43.1921263,42.8434391 43.0090388,42.8624117 L40.0109806,43.1951628 C39.7706783,43.2228921 39.4602877,43.2155949 39.2371498,42.9601938 C39.0869608,42.78944 39.0211637,42.5252823 39.0526319,42.2188011 L39.3801869,39.1598262 C39.6047552,37.0524027 38.5520019,34.4619064 36.934252,33.1338209 L34.5827217,31.2059079 C34.3338371,31.001587 34.1979518,30.756402 34.1979518,30.5141359 C34.1979518,30.2718697 34.3338371,30.0266847 34.5827217,29.8238233 L36.934252,27.8944508 C38.5520019,26.5663654 39.6047552,23.9773285 39.3801869,21.8699049 L39.0526319,18.8109301 C39.0211637,18.5044488 39.0869608,18.2402912 39.2371498,18.0695373 C39.4602877,17.8126769 39.7649568,17.8068391 40.0109806,17.8345684 L43.0090388,18.16586 C43.1921263,18.1862921 43.3795049,18.1979676 43.5711747,18.1979676 L43.5726051,18.1979676 C45.5150492,18.1979676 47.7621625,17.1340398 48.9150417,15.6716863 L50.8045622,13.2709165 C51.2036357,12.7644927 51.7614805,12.7644927 52.1576934,13.2709165 L54.0486442,15.6716863 C55.3145227,17.2785238 57.9206592,18.3833158 59.9546471,18.16586 L62.9527053,17.8345684 C63.1972988,17.8068391 63.5033982,17.8126769 63.7265361,18.0695373 C63.8781555,18.2402912 63.9425222,18.5044488 63.911054,18.8109301 L63.583499,21.8699049 C63.3589307,23.9773285 64.411684,26.5663654 66.0294339,27.8944508 L68.3809642,29.8238233 C68.6298488,30.0266847 68.7671645,30.2718697 68.7671645,30.5141359 C68.7671645,30.756402 68.6298488,31.001587 68.3809642,31.2059079 Z M52.2420853,61.2746382 C51.9030873,61.1316136 51.5211782,61.1257759 51.1807498,61.2629627 L45.7610731,63.4083315 L45.7610731,46.4161349 C46.1329696,46.6394284 46.4605246,46.9021266 46.6850929,47.1867163 L48.5746134,49.5874862 C49.3169761,50.5288215 50.3768812,51.0688123 51.4825581,51.0688123 C52.5868048,51.0688123 53.6467099,50.5288215 54.3905029,49.5874862 L56.278593,47.1867163 C56.5031613,46.9021266 56.8307163,46.6408878 57.2040432,46.4161349 L57.2040432,63.3601702 L52.2420853,61.2746382 Z M70.1732194,27.5485648 L67.8216891,25.6206518 C66.9763396,24.9245015 66.311217,23.2884753 66.4285074,22.1851428 L66.7546321,19.1276274 C66.8747833,17.9834307 66.5572409,16.916584 65.8563589,16.1197328 C65.0725155,15.2309371 63.922497,14.7916473 62.6423147,14.9332125 L59.6456869,15.2645041 C58.517124,15.3929343 56.9522978,14.6953246 56.278593,13.8430148 L54.3890725,11.442245 C53.6467099,10.4994502 52.5868048,9.95945946 51.4825581,9.95945946 C50.3768812,9.95945946 49.3169761,10.4994502 48.573183,11.442245 L46.6850929,13.8430148 C46.0113881,14.6967841 44.4580049,15.3929343 43.3194294,15.2645041 L40.3213712,14.9332125 C39.0326067,14.7916473 37.8911704,15.2309371 37.107327,16.1197328 C36.4064451,16.916584 36.0889026,17.9834307 36.2090538,19.1276274 L36.5351785,22.1851428 C36.6524689,23.2884753 35.9887766,24.9245015 35.1419969,25.6206518 L32.7904665,27.5485648 C31.867877,28.3074708 31.3372093,29.3889118 31.3372093,30.5141359 C31.3372093,31.6408194 31.867877,32.7222604 32.7904665,33.4811663 L35.1419969,35.4090794 C35.9887766,36.1037703 36.6524689,37.7412558 36.5351785,38.8431289 L36.2090538,41.9021038 C36.0889026,43.044841 36.4064451,44.1131472 37.107327,44.9099984 C37.8911704,45.8002535 39.0354674,46.235165 40.3213712,46.0965187 L42.9003306,45.8104695 L42.9003306,65.5405654 C42.9003306,66.0221788 43.1320507,66.4731441 43.5225421,66.7460584 C43.9116031,67.0175132 44.4079419,67.0744312 44.8470659,66.9007584 L51.6799494,64.1949668 L58.089443,66.889083 C58.2639483,66.9635141 58.4498966,67 58.6344144,67 C58.9133368,67 59.1893985,66.9182717 59.4297009,66.7533556 C59.8273441,66.4833602 60.0647857,66.0280166 60.0647857,65.5405654 L60.0647857,45.8104695 L62.6423147,46.0965187 C63.93394,46.2380839 65.0725155,45.7987941 65.8563589,44.9099984 C66.5572409,44.1131472 66.8747833,43.044841 66.7546321,41.9021038 L66.4285074,38.8431289 C66.311217,37.7412558 66.9763396,36.1037703 67.8216891,35.4090794 L70.1732194,33.4811663 C71.0958089,32.7222604 71.627907,31.6408194 71.627907,30.5141359 C71.627907,29.3889118 71.0958089,28.3074708 70.1732194,27.5485648 Z" id="Fill-3" fill="#F93822"></path>
                        <path d="M52.9375,29.7490347 L50.0276163,29.7490347 C49.2259433,29.7490347 48.5726744,29.0811689 48.5726744,28.261583 C48.5726744,27.4419971 49.2259433,26.7741313 50.0276163,26.7741313 L54.3924419,26.7741313 C55.1970247,26.7741313 55.8473837,26.1092403 55.8473837,25.2866795 C55.8473837,24.4641187 55.1970247,23.7992278 54.3924419,23.7992278 L52.9360451,23.7992278 L52.9360451,22.3117761 C52.9360451,21.4892153 52.2842311,20.8243243 51.4811032,20.8243243 C50.6779753,20.8243243 50.0261613,21.4892153 50.0261613,22.3117761 L50.0261613,23.7992278 C47.6211424,23.7992278 45.6627907,25.8013378 45.6627907,28.261583 C45.6627907,30.7218282 47.6211424,32.7239382 50.0276163,32.7239382 L52.9375,32.7239382 C53.739173,32.7239382 54.3924419,33.3918041 54.3924419,34.21139 C54.3924419,35.0309759 53.739173,35.6988417 52.9375,35.6988417 L47.1177326,35.6988417 C46.3131497,35.6988417 45.6627907,36.3637326 45.6627907,37.1862934 C45.6627907,38.0088542 46.3131497,38.6737452 47.1177326,38.6737452 L50.0261613,38.6737452 L50.0261613,40.1611969 C50.0261613,40.9837577 50.6779753,41.6486486 51.4811032,41.6486486 C52.2842311,41.6486486 52.9360451,40.9837577 52.9360451,40.1611969 L52.9360451,38.6737452 L52.9375,38.6737452 C55.3439738,38.6737452 57.3023256,36.6716351 57.3023256,34.21139 C57.3023256,31.7511448 55.3439738,29.7490347 52.9375,29.7490347" id="Fill-5" fill="#404042"></path>
                        <path d="M28.1395349,13.5810811 L11.255814,13.5810811 C10.4777558,13.5810811 9.84883721,12.7698378 9.84883721,11.7702703 C9.84883721,10.7707027 10.4777558,9.95945946 11.255814,9.95945946 L28.1395349,9.95945946 C28.917593,9.95945946 29.5465116,10.7707027 29.5465116,11.7702703 C29.5465116,12.7698378 28.917593,13.5810811 28.1395349,13.5810811" id="Fill-7" stroke="#F6F6F6" stroke-width="0.81" fill="#404042"></path>
                        <path d="M25.4428295,42.5540541 L11.2664729,42.5540541 C10.4825203,42.5540541 9.84883721,41.7446216 9.84883721,40.7432432 C9.84883721,39.7418649 10.4825203,38.9324324 11.2664729,38.9324324 L25.4428295,38.9324324 C26.226782,38.9324324 26.8604651,39.7418649 26.8604651,40.7432432 C26.8604651,41.7446216 26.226782,42.5540541 25.4428295,42.5540541" id="Fill-9" stroke="#F6F6F6" stroke-width="0.81" fill="#404042"></path>
                        <path d="M24.5,19.9189189 L11.3139535,19.9189189 C10.5037442,19.9189189 9.84883721,19.1094865 9.84883721,18.1081081 C9.84883721,17.1067297 10.5037442,16.2972973 11.3139535,16.2972973 L24.5,16.2972973 C25.3102093,16.2972973 25.9651163,17.1067297 25.9651163,18.1081081 C25.9651163,19.1094865 25.3102093,19.9189189 24.5,19.9189189" id="Fill-11" stroke="#F6F6F6" stroke-width="0.81" fill="#404042"></path>
                        <path d="M17.3100775,25.3513514 L11.3410853,25.3513514 C10.5158721,25.3513514 9.84883721,24.5419189 9.84883721,23.5405405 C9.84883721,22.5391622 10.5158721,21.7297297 11.3410853,21.7297297 L17.3100775,21.7297297 C18.1352907,21.7297297 18.8023256,22.5391622 18.8023256,23.5405405 C18.8023256,24.5419189 18.1352907,25.3513514 17.3100775,25.3513514" id="Fill-13" stroke="#F6F6F6" stroke-width="0.81" fill="#404042"></path>
                    </g>
                </g>
            </g>
        </g>
    </g>
</svg>