<?xml version="1.0" encoding="UTF-8"?>
<svg width="82px" height="82px" viewBox="0 0 82 82" version="1.1" xmlns="http://www.w3.org/2000/svg" xmlns:xlink="http://www.w3.org/1999/xlink">
    <!-- Generator: Sketch 49 (51002) - http://www.bohemiancoding.com/sketch -->
    <title>ENERGY SAVING TIP ICON</title>
    <desc>Created with Sketch.</desc>
    <defs>
        <polygon id="path-1" points="0.099175 0 9.99835 0 9.99835 3 0.099175 3"></polygon>
    </defs>
    <g id="Symbols" stroke="none" stroke-width="1" fill="none" fill-rule="evenodd">
        <g id="FOOTER-CTAs" transform="translate(-155.000000, -75.000000)">
            <g id="Energy-Saving-Tips-CTA">
                <g transform="translate(124.000000, 27.000000)">
                    <g id="ENERGY-SAVING-TIP-ICON" transform="translate(31.000000, 48.000000)">
                        <path d="M39.4,23.5450207 L40.9936,23.5450207 C40.9968,23.5450207 40.9984,23.5466115 41,23.5466115 C41.0032,23.5466115 41.0048,23.5450207 41.008,23.5450207 L47.4,23.5450207 C48.2816,23.5450207 49,22.8323258 49,21.9541839 C49,21.0776328 48.2816,20.3665288 47.4,20.3665288 L42.6,20.364938 L42.6,15.5924276 C42.6,14.7126949 41.8848,14 41,14 C40.1168,14 39.4,14.7126949 39.4,15.5924276 L39.4,20.3633471 C35.8672,20.3633471 33,23.2125358 33,26.7266942 C33,30.2408527 35.8672,33.0900414 39.4,33.0900414 L42.6,33.0900414 C44.3664,33.093223 45.7968,34.5154311 45.8,36.2717149 C45.7968,38.0279987 44.3664,39.4502068 42.6,39.4549793 L34.6,39.4549793 C33.7152,39.4549793 33,40.169265 33,41.0458161 C33,41.9271397 33.7152,42.6334712 34.6,42.6334712 L39.4,42.6334712 L39.4,47.4091632 C39.4,48.2857143 40.1152,49 41,49 C41.8832,49 42.6,48.2857143 42.6,47.4091632 L42.6,42.6334712 C46.1328,42.6334712 49,39.7874642 49,36.2717149 C49,32.7575565 46.1328,29.9099586 42.6,29.9099586 L39.4,29.9099586 C37.6336,29.906777 36.2032,28.482978 36.2,26.7266942 C36.2032,24.9704104 37.6336,23.5482024 39.4,23.5450207" id="Fill-1" fill="#404042"></path>
                        <path d="M9,27.4985 C9,26.669 8.33088848,26 7.50125021,26 L1.50025004,26 C0.670611769,26 0,26.669 0,27.4985 C0,28.328 0.670611769,29 1.50025004,29 L7.50125021,29 C8.33088848,29 9,28.328 9,27.4985" id="Fill-3" fill="#F93822"></path>
                        <path d="M16.5014648,5.57094743 C16.7870954,5.85649436 17.1606123,6 17.535594,6 C17.9105757,6 18.2855573,5.85649436 18.5726527,5.57094743 C19.1424491,4.99985357 19.1424491,4.07145995 18.5726527,3.50036609 L16.5014648,1.4283204 C15.9287388,0.857226534 15.001538,0.857226534 14.4273473,1.4283204 C13.8575509,2.00087861 13.8575509,2.93073656 14.4273473,3.50036609 L16.5014648,5.57094743 Z" id="Fill-5" fill="#F93822"></path>
                        <path d="M5.73129953,9.79831717 L10.802804,12.7975517 C11.0341255,12.9340168 11.2859438,13 11.5348341,13 C12.0413989,13 12.5333231,12.7300689 12.8027102,12.2501914 C13.2082549,11.5318747 12.968149,10.614109 12.2697923,10.2017142 L7.19828783,7.2009801 C6.497003,6.78708574 5.60099817,7.03302296 5.19691757,7.74984001 C4.7913729,8.46815667 5.03294283,9.38292319 5.73129953,9.79831717" id="Fill-7" fill="#F93822"></path>
                        <path d="M12.8051798,43.7510853 C12.3981777,43.0327338 11.5051156,42.7852849 10.8023782,43.2036984 L5.73095668,46.2015786 C5.03114736,46.6139933 4.79250945,47.5318036 5.19658346,48.250155 C5.46743016,48.7300558 5.95934633,49 6.46443883,49 C6.71332499,49 6.96513923,48.9355133 7.19645695,48.7975419 L12.2664144,45.7996617 C12.9662237,45.387247 13.2077897,44.4694367 12.8051798,43.7510853" id="Fill-9" fill="#F93822"></path>
                        <g id="Group-13" transform="translate(72.000000, 26.000000)">
                            <mask id="mask-2" fill="white">
                                <use xlink:href="#path-1"></use>
                            </mask>
                            <g id="Clip-12"></g>
                            <path d="M8.350825,0 L1.750825,0 C0.838375,0 0.099175,0.6705 0.099175,1.5 C0.099175,2.3295 0.838375,3 1.750825,3 L8.350825,3 C9.259975,3 9.999175,2.3295 9.999175,1.5 C9.999175,0.6705 9.259975,0 8.350825,0" id="Fill-11" fill="#F93822" mask="url(#mask-2)"></path>
                        </g>
                        <path d="M65.5016475,50.427316 C64.9290474,49.8575613 64.0020502,49.8575613 63.4294501,50.427316 C62.85685,51 62.85685,51.9271329 63.4294501,52.4998169 L65.5016475,54.5708532 C65.7872153,54.8564628 66.1621147,55 66.537014,55 C66.9119133,55 67.2868126,54.8564628 67.5738449,54.5708532 C68.1420517,53.9981692 68.1420517,53.0725009 67.5738449,52.4998169 L65.5016475,50.427316 Z" id="Fill-14" fill="#F93822"></path>
                        <path d="M16.4990846,50.4307909 L14.429513,52.5023804 C13.856829,53.0748126 13.856829,54.0000738 14.429513,54.5725059 C14.7151227,54.856526 15.0900769,55 15.4635665,55 C15.8399854,55 16.2149396,54.856526 16.5020139,54.5695779 L18.5715855,52.4994524 C19.1428048,51.9270202 19.1428048,51.0002951 18.5715855,50.4278629 C17.9989015,49.8554307 17.0717686,49.8583588 16.4990846,50.4307909" id="Fill-16" fill="#F93822"></path>
                        <path d="M64.4672717,6 C64.8406792,6 65.2140867,5.85794832 65.5010979,5.57238052 L67.5702146,3.50164786 C68.1427727,2.92758336 68.1427727,2.00205079 67.5731433,1.42945074 C66.9991208,0.85831514 66.073656,0.855386239 65.5010979,1.42945074 L63.4305169,3.49871896 C62.8564944,4.07278346 62.8564944,4.99831602 63.4305169,5.56945162 C63.7160637,5.85648387 64.0909356,6 64.4672717,6" id="Fill-18" fill="#F93822"></path>
                        <path d="M5.9206227,39.9444189 L8.8696493,39.1218186 C9.68128001,38.8947301 10.1649021,38.0260769 9.94826379,37.1780681 C9.72857428,36.3332353 8.89100801,35.8282413 8.0793773,36.0537418 L5.1303507,36.8747541 C4.31871999,37.1050186 3.83509794,37.9720838 4.05173621,38.8216806 C4.23633643,39.5299427 4.85268756,40 5.52396108,40 C5.65516454,40 5.78789362,39.9809436 5.9206227,39.9444189" id="Fill-20" fill="#F93822"></path>
                        <path d="M75.0802093,18.0537139 L72.1327531,18.8791639 C71.3196091,19.1061627 70.8359944,19.97606 71.0511038,20.8205589 C71.2357012,21.5317158 71.8505174,22 72.5248319,22 C72.6560334,22 72.7887605,21.9825386 72.9214875,21.9444409 L75.8689437,21.1253404 C76.6836133,20.8967543 77.1657024,20.0252695 76.9475419,19.1791833 C76.7309069,18.333097 75.8948789,17.8283025 75.0802093,18.0537139" id="Fill-22" fill="#F93822"></path>
                        <path d="M5.131294,21.1239825 L8.07963382,21.9444554 C8.21392673,21.9809561 8.34669358,22 8.47793438,22 C9.15092499,22 9.76592548,21.5318385 9.94752613,20.8240417 C10.1657521,19.975003 9.68351847,19.1069204 8.86860467,18.8783941 L5.92026485,18.0531602 C5.10535105,17.8293949 4.27059852,18.3324702 4.05237254,19.1783349 C3.83414656,20.0257866 4.31790625,20.8954562 5.131294,21.1239825" id="Fill-24" fill="#F93822"></path>
                        <path d="M75.8685155,36.8755727 L72.9202324,36.0531878 C72.1057558,35.829334 71.2714512,36.3326082 71.0518171,37.1772196 C70.8352334,38.0265939 71.3172083,38.893432 72.1316849,39.1220486 L75.0784427,39.9444335 C75.2111384,39.9809486 75.3453592,40 75.4750044,40 C76.1476339,40 76.7638296,39.5300658 76.9483833,38.8219893 C77.1649669,37.9710274 76.6799416,37.1057769 75.8685155,36.8755727" id="Fill-26" fill="#F93822"></path>
                        <path d="M75.2678612,46.2011146 L70.1958006,43.2027374 C69.4946413,42.7857545 68.6017244,43.0332443 68.1947886,43.750215 C67.7922441,44.4686856 68.0337708,45.386648 68.7334663,45.7991311 L73.804063,48.7975083 C74.0338793,48.9355026 74.2856526,49 74.5344983,49 C75.0409724,49 75.5328086,48.731511 75.8021475,48.2500307 C76.2090834,47.5330601 75.9675567,46.6135977 75.2678612,46.2011146" id="Fill-28" fill="#F93822"></path>
                        <path d="M68.1967476,12.2471921 C68.468972,12.7285693 68.9592688,13 69.4656648,13 C69.7144721,13 69.964743,12.9340168 70.1959874,12.7975517 L75.2658021,9.79831717 C75.9683169,9.38292319 76.2083427,8.46815667 75.8029332,7.74984001 C75.3975237,7.03302296 74.5047445,6.78708574 73.8036933,7.2009801 L68.7338786,10.2017142 C68.0328275,10.614109 67.791338,11.5318747 68.1967476,12.2471921" id="Fill-30" fill="#F93822"></path>
                        <g id="Group-34" transform="translate(13.000000, 0.000000)" fill="#404042">
                            <path d="M42.241275,49.5760962 C40.6088583,50.62475 39.586025,52.42875 39.5828583,54.4014808 L39.5828583,61.5007885 C39.5796917,62.3649423 38.8751083,63.0714038 38.0026917,63.0777115 C38.0011083,63.0777115 37.999525,63.0761346 37.9979417,63.0761346 C37.994775,63.0761346 37.9931917,63.0777115 37.990025,63.0777115 L19.0058583,63.0777115 C19.0026917,63.0777115 19.0011083,63.0761346 18.9979417,63.0761346 L18.994775,63.0761346 C18.1239417,63.0714038 17.4161917,62.3649423 17.4161917,61.5007885 L17.4161917,54.4014808 C17.413025,52.42875 16.3901917,50.62475 14.757775,49.5760962 C7.78160833,45.0771346 3.16460833,37.2713654 3.16460833,28.3838269 C3.191525,14.4469808 14.506025,3.17828846 28.499525,3.15305769 C42.4898583,3.17828846 53.807525,14.4469808 53.831275,28.3838269 C53.8344417,37.2713654 49.2174417,45.0771346 42.241275,49.5760962 Z M36.4161917,68.0260962 L20.5828583,69.1520192 L20.5828583,66.2299808 L36.4161917,66.2299808 L36.4161917,68.0260962 Z M36.4161917,72.7568654 L20.5828583,73.8843654 L20.5828583,72.3169038 L36.4161917,71.1894038 L36.4161917,72.7568654 Z M33.2511083,78.8469423 L23.749525,78.8469423 C22.4828583,78.8453654 21.3966917,78.0963269 20.8916083,77.0240192 L36.394025,75.9201731 C36.270525,77.5538654 34.9183583,78.8437885 33.2511083,78.8469423 Z M28.499525,0.000788461538 C12.758025,0.000788461538 -0.000475000001,12.7060577 -0.000475000001,28.3838269 C-0.000475000001,38.3783654 5.196025,47.1712885 13.0366917,52.2205962 C13.7919417,52.7047115 14.2526917,53.5404808 14.249525,54.4014808 L14.249525,61.5007885 C14.2526917,63.5570962 15.574775,65.2901346 17.417775,65.9398269 L17.417775,69.3790962 L17.3021917,69.3869808 C16.4313583,69.4484808 15.7758583,70.2038269 15.8376083,71.0727115 C15.8946083,71.90375 16.5896917,72.5376731 17.4114417,72.5376731 L17.4161917,72.5376731 L17.417775,74.1114423 L17.303775,74.11775 C16.429775,74.17925 15.774275,74.9330192 15.836025,75.8019038 C15.8961917,76.6345192 16.5896917,77.2684423 17.4146083,77.2684423 C17.4526083,77.2684423 17.4906083,77.2668654 17.5301917,77.2637115 L17.6378583,77.2558269 C18.339275,79.9760192 20.7981917,81.9976346 23.749525,82.0007885 L33.2511083,81.9976346 C36.7471083,81.9976346 39.5796917,79.1765192 39.5828583,75.6930962 L39.6936917,75.6867885 C40.569275,75.6268654 41.224775,74.8715192 41.1614417,74.0026346 C41.1028583,73.1715962 40.4061917,72.5565962 39.5828583,72.5534423 L39.5828583,70.9639038 L39.6936917,70.9575962 C40.5676917,70.8945192 41.224775,70.14075 41.1614417,69.2702885 C41.101275,68.4424038 40.4061917,67.8274038 39.5828583,67.82425 L39.5828583,65.9398269 C41.4226917,65.2885577 42.7479417,63.5555192 42.7479417,61.5007885 L42.7479417,54.4014808 C42.7479417,53.5404808 43.2086917,52.7047115 43.9623583,52.2205962 C51.8046083,47.1712885 56.999525,38.3783654 56.999525,28.3838269 C56.999525,12.7060577 44.241025,0.000788461538 28.499525,0.000788461538 Z" id="Fill-32"></path>
                        </g>
                    </g>
                </g>
            </g>
        </g>
    </g>
</svg>