<?xml version="1.0" encoding="UTF-8"?>
<svg width="80px" height="80px" viewBox="0 0 80 80" version="1.1" xmlns="http://www.w3.org/2000/svg" xmlns:xlink="http://www.w3.org/1999/xlink">
    <!-- Generator: Sketch 48.2 (47327) - http://www.bohemiancoding.com/sketch -->
    <title>maintenance icon</title>
    <desc>Created with Sketch.</desc>
    <defs></defs>
    <g id="D-Home-061917-AC-tips" stroke="none" stroke-width="1" fill="none" fill-rule="evenodd" transform="translate(-296.000000, -3228.000000)">
        <g id="browse-maintenance-tips" transform="translate(-1.000000, 3186.000000)">
            <g id="browse-maintenance-tips-section">
                <g id="maintenance-icon" transform="translate(297.000000, 42.000000)">
                    <circle id="Oval-Copy" fill="#FFFFFF" cx="40" cy="40" r="40"></circle>
                    <path d="M55.1814196,53.6991222 L52.7413855,56.1839819 C52.5436664,56.3853333 52.2852834,56.4951614 52.02016,56.4951614 C51.7325685,56.4951614 51.4674451,56.3716048 51.2674791,56.1496606 L35.1151728,38.0577768 L37.3822026,35.7513876 L55.1454706,52.1981388 C55.3611643,52.394914 55.4802451,52.6580437 55.4869855,52.9417662 C55.493726,53.2254887 55.3836323,53.4931946 55.1814196,53.7014103 L55.1814196,53.6991222 Z M30.1452323,56.1427964 C29.9542536,56.3601644 29.6981174,56.483721 29.4262536,56.4905852 C29.1498962,56.4974495 28.8870196,56.3876214 28.6848068,56.1816938 L26.2447728,53.6968341 C26.04256,53.4909065 25.9347132,53.2232006 25.9414536,52.9440543 C25.9504409,52.664908 26.0695217,52.4040664 26.2852153,52.2095792 L36.4273089,42.9245324 L39.1347132,45.9562443 L30.1452323,56.1405083 L30.1452323,56.1427964 Z M29.4037855,33.268816 C28.5365174,33.268816 27.7141855,33.6166048 27.0963132,34.2504042 L25.6448749,35.7285068 L23.8631557,35.7285068 C23.2430366,35.7285068 22.7397515,36.2410377 22.7397515,36.872549 L22.7397515,38.687 L21.6163472,39.8310422 L18.7112238,36.872549 L19.8346281,35.7285068 L21.6163472,35.7285068 C22.2342196,35.7285068 22.7397515,35.2159759 22.7397515,34.5844646 L22.7397515,32.7700136 L30.2418451,25.1278115 C30.383394,25.0454404 31.275377,24.6404495 35.2365004,24.4162172 C35.7847217,24.384184 36.3217089,24.3613032 36.824994,24.3429985 L33.6435132,27.580638 C33.0031728,28.2350302 32.6616579,29.097638 32.6818791,30.0105837 C32.7043472,30.9235294 33.0863047,31.7701207 33.7581004,32.3924796 L35.7150706,34.2069306 L33.6030706,36.35773 L31.8235983,34.3625204 C31.1989855,33.6669427 30.3204834,33.2665279 29.4060323,33.2665279 L29.4037855,33.268816 Z M44.7674621,34.1703213 C44.31136,33.2253424 44.0844323,32.2094329 44.0844323,31.1523379 C44.0844323,27.3678462 47.1063898,24.2880845 50.8248579,24.2880845 C51.3708323,24.2880845 51.8988323,24.3521508 52.4178451,24.4802836 L48.9060834,28.0565596 C48.6926366,28.2716395 48.5780494,28.5622262 48.5780494,28.8665415 L48.5780494,32.2986682 C48.5780494,32.9301795 49.0813345,33.4427104 49.7014536,33.4427104 L53.0716664,33.4427104 C53.3682451,33.4427104 53.6535898,33.3214419 53.8647898,33.1086501 L57.3787983,29.5323741 C57.5023728,30.0586335 57.5675302,30.6009095 57.5675302,31.1546259 C57.5675302,34.9391176 54.5410791,38.0188793 50.8271047,38.0188793 C49.7868323,38.0188793 48.7870026,37.7832066 47.8613174,37.3210136 C47.4097089,37.0944932 46.8659813,37.2020332 46.5312068,37.5841433 L44.8101515,39.5358793 L42.4869515,37.3850799 L44.5135728,35.5294434 C44.886543,35.1862308 44.992143,34.6348024 44.7719557,34.1748974 L44.7674621,34.1703213 Z M56.655326,50.5026682 L46.4660494,41.071184 L47.6568579,39.7212142 C48.6656749,40.1079005 49.7261685,40.3046757 50.8226111,40.3046757 C55.7790706,40.3046757 59.8098451,36.1998522 59.8098451,31.1523379 C59.8098451,29.6902519 59.459343,28.2350302 58.8032749,26.9445505 C58.6392579,26.6196425 58.3314451,26.3954103 57.980943,26.3404962 C57.6259472,26.2855822 57.2687047,26.4045626 57.0125685,26.6631161 L52.606577,31.1523379 L50.8248579,31.1523379 L50.8248579,29.3378869 L55.2308494,24.8486652 C55.4869855,24.5901116 55.6015728,24.2263062 55.5498962,23.8647888 C55.4959728,23.5032715 55.2735387,23.192092 54.9544919,23.0250618 C53.6895387,22.3546531 52.2583217,22.0022881 50.8248579,22.0022881 C45.8661515,22.0022881 41.8376238,26.1071116 41.8376238,31.1546259 C41.8376238,32.2712112 42.0286026,33.351187 42.4083132,34.3762489 L40.8130791,35.8383348 L35.2702026,30.7038733 C35.0567557,30.507098 34.9376749,30.2439683 34.9286877,29.9602459 C34.9219472,29.6765234 35.029794,29.4088175 35.2365004,29.2006018 L40.3884323,23.9540241 C40.709726,23.6268281 40.8063387,23.1348899 40.6288409,22.7070181 C40.4535898,22.2791463 40.0469174,22 39.5930621,22 C39.500943,22 37.2855898,22.0022881 34.8927387,22.1441493 C30.3227302,22.4187195 29.2060664,22.947267 28.6848068,23.4781026 L20.820977,31.4863982 C20.609777,31.7014781 20.4951898,31.9920649 20.4951898,32.2963801 L20.4951898,33.4404223 L19.3717855,33.4404223 C19.07296,33.4404223 18.7876153,33.5616908 18.5741685,33.7744827 L16.32736,36.0625671 C15.8914791,36.5087436 15.8914791,37.2340664 16.32736,37.6802428 L20.820977,42.2564118 C21.2591047,42.7025882 21.9735898,42.7025882 22.4094706,42.2564118 L24.6562791,39.9683273 C24.869726,39.7532474 24.98656,39.4626606 24.98656,39.1583454 L24.98656,38.0143032 L26.1099643,38.0143032 C26.406543,38.0143032 26.6918877,37.8930347 26.9030877,37.6802428 L28.6848068,35.8657919 C28.882526,35.6644404 29.1409089,35.5546124 29.4060323,35.5546124 C29.6936238,35.5546124 29.9587472,35.6781689 30.1587132,35.9001131 L34.9152068,41.2290618 L24.7821004,50.5049563 C24.1035643,51.1227391 23.7216068,51.9670422 23.6946451,52.8799879 C23.672177,53.7929336 24.0114451,54.6578296 24.6562791,55.3122217 L27.0963132,57.7970814 C27.7164323,58.4308808 28.5320238,58.7763816 29.3925515,58.7763816 C29.42176,58.7763816 29.4532153,58.7763816 29.4824238,58.7740935 C30.3789004,58.7489246 31.2079728,58.3576621 31.8146111,57.6689487 L40.6513089,47.6562911 L49.602594,57.6826772 C50.2227132,58.3782549 51.1057089,58.7786697 52.0179132,58.7786697 C52.8874281,58.7786697 53.7075132,58.4308808 54.3253855,57.7970814 L56.7654196,55.3122217 C57.4102536,54.6578296 57.7517685,53.7952217 57.7293004,52.882276 C57.7045855,51.9693303 57.3271217,51.1227391 56.655326,50.5003801 L56.655326,50.5026682 Z" id="Fill-1" fill="#F93822"></path>
                </g>
            </g>
        </g>
    </g>
</svg>